<svg id="Camada_1" data-name="Camada 1" xmlns="http://www.w3.org/2000/svg" viewBox="0 0 1366.77 442.13">
  <defs>
    <style>
      .cls-1 {
        fill: #00265b;
      }

      .cls-2 {
        fill: #67c0bf;
      }

      .cls-3, .cls-4, .cls-5 {
        isolation: isolate;
      }

      .cls-4, .cls-5 {
        font-size: 42.73px;
        fill: #fff;
        font-family: BreeGRK-Regular, Bree GRK;
      }

      .cls-5 {
        letter-spacing: -0.01em;
      }

      .cls-6 {
        opacity: 0.25;
      }

      .cls-7 {
        fill: none;
        stroke: #fff;
        stroke-miterlimit: 10;
        stroke-width: 3px;
      }
    </style>
  </defs>
  <g id="Camada_2" data-name="Camada 2">
    <g id="Camada_1-2" data-name="Camada 1-2">
      <path class="cls-1" d="M703.77,178.42H.77v-152c244.06-15.22,435,60,703,0Z" transform="translate(0 0)"/>
      <path class="cls-2" d="M1366.77,441.42c-223-1-1163,2-1364,0-1-94.33-1-255.66-2-350,230,71,457.66-9.53,682.5-62,245.5-45,527.17-33,682.5,0Z" transform="translate(0 0)"/>
      <g class="cls-3">
        <text class="cls-4" transform="translate(48.28 86) scale(1.33 1)">Clíni</text>
        <text class="cls-5" transform="translate(158.37 86) scale(1.33 1)">c</text>
        <text class="cls-4" transform="translate(184.06 86) scale(1.33 1)">a</text>
      </g>
      <g class="cls-6">
        <path class="cls-7" d="M1.27,91.92c126.48,107,334.92,86.5,374.89,87s173.42-20.24,344-77c196.72-65.44,238.52-73,322.78-82.5,88.51-10,181,23,322.79,93" transform="translate(0 0)"/>
        <path class="cls-7" d="M1.25,92.72C125.5,202,334.09,185.49,374,186.75s173.59-16.92,345.11-70.36c197.76-61.61,239.66-68.34,324-76.25,88.6-8.3,180.28,26.45,320.57,99" transform="translate(0 0)"/>
        <path class="cls-7" d="M1.24,93.51c122,111.56,330.74,99.05,370.59,101.07S545.61,181,718,130.87c198.8-57.79,240.79-63.72,325.21-70,88.69-6.61,179.62,29.87,318.37,105.07" transform="translate(0 0)"/>
        <path class="cls-7" d="M1.23,94.31C121,208.14,329.87,199.62,369.66,202.41s174-10.27,347.28-57.07c199.83-54,241.91-59.09,326.42-63.76,88.77-4.91,178.94,33.28,316.16,111.1" transform="translate(0 0)"/>
        <path class="cls-7" d="M1.22,95.11C118.74,211.22,327.76,206.69,367.49,210.23s174.15-6.94,348.36-50.42c200.87-50.13,243-54.45,327.64-57.51,88.86-3.21,178.27,36.7,314,117.13" transform="translate(0 0)"/>
        <path class="cls-7" d="M1.2,95.9C116.48,214.29,325.65,213.76,365.33,218.06s174.32-3.61,349.43-43.78C916.66,128,958.94,124.46,1043.61,123c89-1.52,177.6,40.12,311.75,123.16" transform="translate(0 0)"/>
        <path class="cls-7" d="M1.19,96.7c113,120.66,322.35,124.13,362,129.19s174.51-.29,350.51-37.13c202.94-42.49,245.32-45.19,330.07-45,89,.18,176.93,43.53,309.54,129.19" transform="translate(0 0)"/>
        <path class="cls-7" d="M1.18,97.49C112,220.44,321.43,227.89,361,233.72s174.69,3,351.6-30.49c204-38.66,246.44-40.56,331.28-38.77,89.12,1.88,176.26,46.95,307.33,135.22" transform="translate(0 0)"/>
        <path class="cls-7" d="M1.16,98.29C109.72,223.51,319.32,235,358.82,241.54S533.7,247.91,711.5,217.7c205-34.83,247.57-35.93,332.49-32.52,89.21,3.58,175.59,50.37,305.13,141.26" transform="translate(0 0)"/>
        <path class="cls-7" d="M1.15,99.08c106.32,127.5,316.07,143,355.51,150.29s175.05,9.7,353.75-17.2c206.05-31,248.71-31.29,333.71-26.27,89.29,5.27,174.92,53.79,302.91,147.29" transform="translate(0 0)"/>
      </g>
    </g>
  </g>
</svg>
