<svg id="Camada_1" data-name="Camada 1" xmlns="http://www.w3.org/2000/svg" viewBox="0 0 600.5 534.29"><path d="M1225.69,1614.28c-37.22,0-68.31,25.28-75.94,59l-70.12-17.74a47.63,47.63,0,0,0,.39-5.89,46.44,46.44,0,0,0-7.45-25.22l111.3-87.14a78.45,78.45,0,0,0,63.82,32.24c42.94,0,77.75-33.65,77.75-75.15s-34.81-75.14-77.75-75.14-77.75,33.64-77.75,75.14a72.93,72.93,0,0,0,10.61,37.89L1069,1619.64a49.27,49.27,0,0,0-31-17.06V1555.5c.89,0,1.79.07,2.69.07,42.94,0,77.75-33.65,77.75-75.15s-34.81-75.14-77.75-75.14-77.75,33.64-77.75,75.14c0,38.76,30.36,70.65,69.34,74.7l-.27,47c-.34,0-.68,0-1,0a49.68,49.68,0,0,0-31,10.77l-99.42-108.6a73.91,73.91,0,0,0,26.92-56.83c0-41.5-34.81-75.14-77.75-75.14s-77.75,33.64-77.75,75.14,34.81,75.15,77.75,75.15a79.19,79.19,0,0,0,46.08-14.63l99.72,108.93a46.8,46.8,0,0,0-13.36,28.92l-102.22-14.73a72.36,72.36,0,0,0,.53-8.64c0-41.5-34.81-75.14-77.75-75.14s-77.75,33.64-77.75,75.14,34.81,75.15,77.75,75.15c37.8,0,69.28-26.08,76.28-60.63l102.6,14.78.4-1.44a46.59,46.59,0,0,0,11.81,30.4l-93.42,75.4a79.15,79.15,0,0,0-47.67-15.8c-42.94,0-77.75,33.64-77.75,75.14s34.81,75.15,77.75,75.15,77.75-33.65,77.75-75.15a73.83,73.83,0,0,0-25.32-55.48L998,1685a49.67,49.67,0,0,0,33,12.36,50.53,50.53,0,0,0,10.52-1.11l16.18,61.49c-35.76,6.76-62.74,37.19-62.74,73.73,0,41.5,34.81,75.15,77.75,75.15s77.75-33.65,77.75-75.15-34.81-75.14-77.75-75.14a81.74,81.74,0,0,0-9,.52l-16.36-62.2a48.27,48.27,0,0,0,31.21-33.12l70.17,17.75a73,73,0,0,0-.73,10.19c0,41.5,34.81,75.15,77.75,75.15s77.75-33.65,77.75-75.15S1268.63,1614.28,1225.69,1614.28ZM1031,1691.69a42,42,0,1,1,42-42A42,42,0,0,1,1031,1691.69Z" transform="translate(-724.94 -1372.28)" style="fill:#00265b"/><text transform="translate(78.46 50.73) scale(1.01 1)" style="font-size:19.228803634643555px;fill:#fff;font-family:BreeGRK-Regular, Bree GRK">Or<tspan x="19.9" y="0" style="letter-spacing:-0.015007754225705956em">t</tspan><tspan x="26.36" y="0">odontia</tspan></text><path d="M801.11,1444.32a3.43,3.43,0,0,1-2.58-1,4.11,4.11,0,0,1-1-3,5.12,5.12,0,0,1,.32-1.91,3.52,3.52,0,0,1,.84-1.25,3,3,0,0,1,1.16-.68,4.13,4.13,0,0,1,1.28-.21,3.62,3.62,0,0,1,1.5.32,2.88,2.88,0,0,1,1.26,1.11l-1,.73a2.77,2.77,0,0,0-.8-.71,1.91,1.91,0,0,0-1-.25,1.78,1.78,0,0,0-1.48.72,3.22,3.22,0,0,0-.57,2,3.81,3.81,0,0,0,.52,2.11,1.82,1.82,0,0,0,1.62.78,2.32,2.32,0,0,0,1-.21,3.71,3.71,0,0,0,.9-.6l.76.93a4.07,4.07,0,0,1-1.26.8A4.11,4.11,0,0,1,801.11,1444.32Z" transform="translate(-724.94 -1372.28)" style="fill:#67c0bf"/><path d="M806.91,1444.35a2.42,2.42,0,0,1-1.9-.77,3.36,3.36,0,0,1-.7-2.34,3.86,3.86,0,0,1,.26-1.51,2.65,2.65,0,0,1,.67-1,2.45,2.45,0,0,1,.91-.49,3.3,3.3,0,0,1,1-.15,4.9,4.9,0,0,1,.78.08,2,2,0,0,1,.86.39,2.38,2.38,0,0,1,.69.89,3.67,3.67,0,0,1,.28,1.58,4.59,4.59,0,0,1-.21,1.46,2.84,2.84,0,0,1-.6,1,2.59,2.59,0,0,1-.89.6A3.12,3.12,0,0,1,806.91,1444.35Zm.1-1a1,1,0,0,0,1-.57,3.19,3.19,0,0,0,.3-1.48,3.65,3.65,0,0,0-.27-1.55,1,1,0,0,0-1-.56,1,1,0,0,0-.95.53,2.82,2.82,0,0,0-.31,1.38c0,.27,0,.54,0,.81a2.53,2.53,0,0,0,.18.72,1.26,1.26,0,0,0,.38.52A1,1,0,0,0,807,1443.33Z" transform="translate(-724.94 -1372.28)" style="fill:#67c0bf"/><path d="M810.94,1439.25l-.11-.94H812l.15.84a1.6,1.6,0,0,1,.6-.75,1.57,1.57,0,0,1,.85-.26,2.39,2.39,0,0,1,.53.06,1.33,1.33,0,0,1,.43.16l-.25,1.16a2.08,2.08,0,0,0-.4-.15,1.74,1.74,0,0,0-.45-.06,1,1,0,0,0-.78.33,1.3,1.3,0,0,0-.32.84v3.7h-1.42Z" transform="translate(-724.94 -1372.28)" style="fill:#67c0bf"/><path d="M815.39,1439.25l-.11-.94h1.18l.14.84a1.57,1.57,0,0,1,1.46-1,2.31,2.31,0,0,1,.52.06,1.5,1.5,0,0,1,.44.16l-.26,1.16a2.08,2.08,0,0,0-.4-.15,1.74,1.74,0,0,0-.45-.06,1,1,0,0,0-.78.33,1.29,1.29,0,0,0-.31.84v3.7h-1.43Z" transform="translate(-724.94 -1372.28)" style="fill:#67c0bf"/><path d="M820.5,1437.41a.81.81,0,0,1-.59-.23.8.8,0,0,1,0-1.1.88.88,0,0,1,1.19,0,.69.69,0,0,1,.23.54.77.77,0,0,1-.23.56A.85.85,0,0,1,820.5,1437.41Zm-.7.9h1.42v5.87H819.8Z" transform="translate(-724.94 -1372.28)" style="fill:#67c0bf"/><path d="M825,1447.26a2.34,2.34,0,0,1-1.51-.42,1.41,1.41,0,0,1-.51-1.15,1.79,1.79,0,0,1,.43-1.18,4.29,4.29,0,0,1,1-.88,3,3,0,0,1-.75-.2,1.94,1.94,0,0,1-.64-.46,2.12,2.12,0,0,1-.46-.76,3,3,0,0,1-.18-1.1,3.51,3.51,0,0,1,.23-1.3,2.55,2.55,0,0,1,.61-.93,2.51,2.51,0,0,1,.94-.55,3.5,3.5,0,0,1,1.19-.19,7.39,7.39,0,0,1,1.17.1,4.79,4.79,0,0,1,1.16.31v4.94c0,.2,0,.44,0,.72a4.7,4.7,0,0,1-.08.69,2.84,2.84,0,0,1-.8,1.73A2.46,2.46,0,0,1,825,1447.26Zm.11-4.36a1.16,1.16,0,0,0,.82-.31,1.08,1.08,0,0,0,.33-.84v-2.46a3.83,3.83,0,0,0-.43-.11,4.06,4.06,0,0,0-.51,0,1.43,1.43,0,0,0-1.05.46,2,2,0,0,0-.45,1.44c0,.21,0,.43,0,.65a1.67,1.67,0,0,0,.17.6,1.28,1.28,0,0,0,.39.44A1.26,1.26,0,0,0,825.14,1442.9Zm0,3.33a1,1,0,0,0,.93-.51,2.94,2.94,0,0,0,.24-1.27v-1a6.31,6.31,0,0,0-1.48,1,1.46,1.46,0,0,0-.53,1.09.68.68,0,0,0,.23.59A1,1,0,0,0,825.13,1446.23Z" transform="translate(-724.94 -1372.28)" style="fill:#67c0bf"/><path d="M829.87,1437.41a.78.78,0,0,1-.59-.23.77.77,0,0,1,0-1.1.78.78,0,0,1,.59-.23.81.81,0,0,1,.6.23.73.73,0,0,1,.23.54.74.74,0,0,1-.24.56A.81.81,0,0,1,829.87,1437.41Zm-.71.9h1.43v5.87h-1.43Z" transform="translate(-724.94 -1372.28)" style="fill:#67c0bf"/><path d="M832.1,1439.33l-.11-1h1.19l.12.73a2.15,2.15,0,0,1,.74-.67,2.19,2.19,0,0,1,1-.23,2.05,2.05,0,0,1,1,.22,1.65,1.65,0,0,1,.67.71,1.89,1.89,0,0,1,.74-.69,2.13,2.13,0,0,1,1-.24,1.87,1.87,0,0,1,1.41.52,2.14,2.14,0,0,1,.5,1.54v4H839v-3.7a2.21,2.21,0,0,0-.17-.89c-.1-.25-.35-.38-.75-.38a1,1,0,0,0-.78.35,1.16,1.16,0,0,0-.3.79v3.83h-1.43v-3.7a2.49,2.49,0,0,0-.15-.87c-.1-.26-.35-.4-.76-.4a1,1,0,0,0-.79.36,1.28,1.28,0,0,0-.29.82v3.79H832.1Z" transform="translate(-724.94 -1372.28)" style="fill:#67c0bf"/><path d="M844.17,1444.35a2.41,2.41,0,0,1-1.9-.77,3.36,3.36,0,0,1-.71-2.34,3.68,3.68,0,0,1,.27-1.51,2.53,2.53,0,0,1,.67-1,2.31,2.31,0,0,1,.91-.49,3.29,3.29,0,0,1,1-.15,5,5,0,0,1,.79.08,2.08,2.08,0,0,1,.86.39,2.38,2.38,0,0,1,.69.89,3.82,3.82,0,0,1,.28,1.58,4.31,4.31,0,0,1-.22,1.46,2.83,2.83,0,0,1-.59,1,2.54,2.54,0,0,1-.9.6A3.07,3.07,0,0,1,844.17,1444.35Zm.1-1a1,1,0,0,0,.94-.57,3.19,3.19,0,0,0,.3-1.48,3.65,3.65,0,0,0-.27-1.55,1,1,0,0,0-1-.56,1,1,0,0,0-1,.53,2.82,2.82,0,0,0-.3,1.38,7.32,7.32,0,0,0,0,.81,2.53,2.53,0,0,0,.18.72,1.24,1.24,0,0,0,.37.52A1,1,0,0,0,844.27,1443.33Z" transform="translate(-724.94 -1372.28)" style="fill:#67c0bf"/><path d="M849.85,1444.35a4,4,0,0,1-1.36-.21,3.24,3.24,0,0,1-.83-.39l.41-1a7.38,7.38,0,0,0,.78.37,2.73,2.73,0,0,0,1,.19,1,1,0,0,0,.63-.19.65.65,0,0,0,.26-.56.6.6,0,0,0-.29-.56,2.92,2.92,0,0,0-.73-.29c-.22-.06-.43-.13-.65-.21a2.8,2.8,0,0,1-.6-.3,1.57,1.57,0,0,1-.43-.49,1.47,1.47,0,0,1-.17-.74,1.69,1.69,0,0,1,.66-1.38,1.85,1.85,0,0,1,.7-.35,2.82,2.82,0,0,1,.83-.12,3.28,3.28,0,0,1,1.23.23,3,3,0,0,1,.94.6l-.69.8a3.78,3.78,0,0,0-.7-.45,1.86,1.86,0,0,0-.75-.17,1.07,1.07,0,0,0-.59.17.63.63,0,0,0-.26.55.58.58,0,0,0,.31.54,5.17,5.17,0,0,0,.76.31l.65.22a2.86,2.86,0,0,1,.6.32,1.65,1.65,0,0,1,.43.48,1.5,1.5,0,0,1,.17.74,1.65,1.65,0,0,1-.63,1.39A2.64,2.64,0,0,1,849.85,1444.35Z" transform="translate(-724.94 -1372.28)" style="fill:#67c0bf"/><path d="M858,1444.35a2.41,2.41,0,0,1-1.9-.77,3.36,3.36,0,0,1-.71-2.34,3.68,3.68,0,0,1,.27-1.51,2.53,2.53,0,0,1,.67-1,2.31,2.31,0,0,1,.91-.49,3.29,3.29,0,0,1,.95-.15,5,5,0,0,1,.79.08,2.08,2.08,0,0,1,.86.39,2.38,2.38,0,0,1,.69.89,3.82,3.82,0,0,1,.28,1.58,4.31,4.31,0,0,1-.22,1.46,2.83,2.83,0,0,1-.59,1,2.54,2.54,0,0,1-.9.6A3.07,3.07,0,0,1,858,1444.35Zm.09-1a1,1,0,0,0,.95-.57,3.19,3.19,0,0,0,.3-1.48,3.65,3.65,0,0,0-.27-1.55,1,1,0,0,0-.95-.56,1,1,0,0,0-1,.53,2.82,2.82,0,0,0-.3,1.38,7.32,7.32,0,0,0,0,.81,2.93,2.93,0,0,0,.17.72,1.35,1.35,0,0,0,.38.52A1,1,0,0,0,858.08,1443.33Z" transform="translate(-724.94 -1372.28)" style="fill:#67c0bf"/><path d="M866.51,1444.35a2.45,2.45,0,0,1-1.13-.23,1.79,1.79,0,0,1-.71-.62,2.47,2.47,0,0,1-.38-.91,4.86,4.86,0,0,1-.12-1.09,3.63,3.63,0,0,1,.79-2.45,2.89,2.89,0,0,1,2.32-.91,6.66,6.66,0,0,1,.9.09,6,6,0,0,1,1.24.32v4.51l.12,1.12H868.3l-.08-.62h-.05a2,2,0,0,1-.65.57A2,2,0,0,1,866.51,1444.35Zm.32-1a1.19,1.19,0,0,0,.88-.32,1,1,0,0,0,.3-.68v-3a1.91,1.91,0,0,0-.38-.12,3,3,0,0,0-.53,0,1.23,1.23,0,0,0-.71.19,1.41,1.41,0,0,0-.48.49,2.3,2.3,0,0,0-.25.74,4.27,4.27,0,0,0-.08.89,4,4,0,0,0,0,.7,1.77,1.77,0,0,0,.2.6,1,1,0,0,0,.38.42A1.08,1.08,0,0,0,866.83,1443.33Z" transform="translate(-724.94 -1372.28)" style="fill:#67c0bf"/><path d="M872.65,1444.35a2.1,2.1,0,0,1-.95-.17,1.25,1.25,0,0,1-.52-.47,1.71,1.71,0,0,1-.21-.66c0-.25,0-.51,0-.77v-6.2h1.44v6.18a1.59,1.59,0,0,0,.14.77.55.55,0,0,0,.51.23,1.63,1.63,0,0,0,.36,0,3,3,0,0,0,.39-.14l.31.93a2.05,2.05,0,0,1-.65.26A3.46,3.46,0,0,1,872.65,1444.35Z" transform="translate(-724.94 -1372.28)" style="fill:#67c0bf"/><path d="M875.49,1437.41a.81.81,0,0,1-.59-.23.8.8,0,0,1,0-1.1.88.88,0,0,1,1.19,0,.69.69,0,0,1,.23.54.73.73,0,0,1-.23.56A.85.85,0,0,1,875.49,1437.41Zm-.7.9h1.42v5.87h-1.42Z" transform="translate(-724.94 -1372.28)" style="fill:#67c0bf"/><path d="M877.73,1439.33l-.11-1h1.2l.12.74a2.13,2.13,0,0,1,.79-.67,2.3,2.3,0,0,1,1.06-.24,1.9,1.9,0,0,1,1.4.5,2.06,2.06,0,0,1,.51,1.53v4h-1.43v-3.71a2.16,2.16,0,0,0-.16-.9.73.73,0,0,0-.74-.36,1.21,1.21,0,0,0-1.23,1.17v3.8h-1.41Z" transform="translate(-724.94 -1372.28)" style="fill:#67c0bf"/><path d="M884.18,1436.08h1.42v2.74a1.75,1.75,0,0,1,.74-.52,2.41,2.41,0,0,1,.88-.16,1.88,1.88,0,0,1,1.43.51,2.14,2.14,0,0,1,.5,1.54v4h-1.43v-3.74a2,2,0,0,0-.17-.87q-.16-.36-.75-.36a1.11,1.11,0,0,0-.85.36,1.13,1.13,0,0,0-.35.8v3.81h-1.42Z" transform="translate(-724.94 -1372.28)" style="fill:#67c0bf"/><path d="M892.68,1444.35a2.4,2.4,0,0,1-1.13-.23,1.75,1.75,0,0,1-.72-.62,2.47,2.47,0,0,1-.38-.91,4.86,4.86,0,0,1-.12-1.09,3.68,3.68,0,0,1,.79-2.45,2.9,2.9,0,0,1,2.32-.91,6.66,6.66,0,0,1,.9.09,5.81,5.81,0,0,1,1.24.32v4.51l.12,1.12h-1.24l-.08-.62h0a1.93,1.93,0,0,1-1.65.8Zm.31-1a1.17,1.17,0,0,0,.88-.32,1,1,0,0,0,.31-.68v-3a2.32,2.32,0,0,0-.39-.12,3,3,0,0,0-.53,0,1.26,1.26,0,0,0-.71.19,1.38,1.38,0,0,0-.47.49,2.31,2.31,0,0,0-.26.74,4.27,4.27,0,0,0-.08.89,5.24,5.24,0,0,0,0,.7,2,2,0,0,0,.2.6,1.13,1.13,0,0,0,.39.42A1,1,0,0,0,893,1443.33Z" transform="translate(-724.94 -1372.28)" style="fill:#67c0bf"/><path d="M897.12,1439.33l-.11-1h1.19l.12.73a2.06,2.06,0,0,1,.74-.67,2.18,2.18,0,0,1,1-.23,2.07,2.07,0,0,1,1,.22,1.65,1.65,0,0,1,.67.71,1.86,1.86,0,0,1,.73-.69,2.19,2.19,0,0,1,1-.24,1.84,1.84,0,0,1,1.41.52,2.14,2.14,0,0,1,.5,1.54v4H904v-3.7a2.21,2.21,0,0,0-.16-.89.73.73,0,0,0-.75-.38,1,1,0,0,0-.78.35,1.16,1.16,0,0,0-.3.79v3.83h-1.43v-3.7a2.49,2.49,0,0,0-.15-.87c-.1-.26-.35-.4-.76-.4a1,1,0,0,0-.8.36,1.27,1.27,0,0,0-.28.82v3.79h-1.43Z" transform="translate(-724.94 -1372.28)" style="fill:#67c0bf"/><path d="M906.47,1440.38h3.15v1.08h-3.15Z" transform="translate(-724.94 -1372.28)" style="fill:#67c0bf"/><path d="M804.4,1458.35a3.29,3.29,0,0,1-1.28-.23,2.17,2.17,0,0,1-.86-.61,2.69,2.69,0,0,1-.5-1,4.1,4.1,0,0,1-.16-1.2,3.86,3.86,0,0,1,.19-1.23,3.2,3.2,0,0,1,.56-1,2.61,2.61,0,0,1,.92-.71,3,3,0,0,1,1.26-.26,2.08,2.08,0,0,1,1.39.43,1.44,1.44,0,0,1,.52,1.19,1.65,1.65,0,0,1-.35,1.08,2.29,2.29,0,0,1-.86.64,4.23,4.23,0,0,1-1.1.29,8.6,8.6,0,0,1-1.08.08,2.53,2.53,0,0,0,.12.53,2,2,0,0,0,.27.47,1.36,1.36,0,0,0,.45.32,1.69,1.69,0,0,0,.66.12,2.16,2.16,0,0,0,.92-.18,5,5,0,0,0,.6-.33l.44.92a2,2,0,0,1-.25.17,2.36,2.36,0,0,1-.45.22,4,4,0,0,1-.63.18A3.21,3.21,0,0,1,804.4,1458.35Zm-1.4-3.51.62,0a3.31,3.31,0,0,0,.71-.14,1.76,1.76,0,0,0,.59-.32.73.73,0,0,0,.05-1,.75.75,0,0,0-.52-.18,1.28,1.28,0,0,0-.63.15,1.84,1.84,0,0,0-.44.39,1.76,1.76,0,0,0-.27.55A2.78,2.78,0,0,0,803,1454.84Z" transform="translate(-724.94 -1372.28)" style="fill:#67c0bf"/><path d="M807.59,1453.32l-.11-1h1.2l.12.73a2.13,2.13,0,0,1,.79-.67,2.33,2.33,0,0,1,1.06-.24,1.94,1.94,0,0,1,1.41.5,2.12,2.12,0,0,1,.5,1.53v4h-1.43v-3.71a2.15,2.15,0,0,0-.16-.89c-.11-.25-.35-.37-.74-.37a1.13,1.13,0,0,0-.88.37,1.11,1.11,0,0,0-.34.8v3.8h-1.42Z" transform="translate(-724.94 -1372.28)" style="fill:#67c0bf"/><path d="M815.91,1458.35a2.55,2.55,0,0,1-1-.17,1.38,1.38,0,0,1-.56-.43,1.72,1.72,0,0,1-.24-.63,6,6,0,0,1-.05-.74v-6.31h1.43v2.24h1.62v1.07h-1.62v3a1,1,0,0,0,.22.74.88.88,0,0,0,.6.19,1,1,0,0,0,.43-.08,3,3,0,0,0,.35-.16l.36.9a2.21,2.21,0,0,1-.69.29A3,3,0,0,1,815.91,1458.35Z" transform="translate(-724.94 -1372.28)" style="fill:#67c0bf"/><path d="M820.39,1458.35a2.46,2.46,0,0,1-1.9-.77,3.4,3.4,0,0,1-.71-2.35,3.71,3.71,0,0,1,.27-1.51,2.62,2.62,0,0,1,.67-1,2.31,2.31,0,0,1,.91-.49,3.29,3.29,0,0,1,1-.15,4.91,4.91,0,0,1,.79.08,2.15,2.15,0,0,1,.86.39,2.38,2.38,0,0,1,.69.89,3.67,3.67,0,0,1,.28,1.58,4.27,4.27,0,0,1-.22,1.46,2.83,2.83,0,0,1-.59,1,2.3,2.3,0,0,1-.9.6A3.07,3.07,0,0,1,820.39,1458.35Zm.1-1a1,1,0,0,0,.94-.57,3.19,3.19,0,0,0,.3-1.48,3.65,3.65,0,0,0-.27-1.55,1,1,0,0,0-1-.56,1,1,0,0,0-1,.53,2.71,2.71,0,0,0-.31,1.38,7.32,7.32,0,0,0,0,.81,2.53,2.53,0,0,0,.18.72,1.18,1.18,0,0,0,.37.52A1,1,0,0,0,820.49,1457.32Z" transform="translate(-724.94 -1372.28)" style="fill:#67c0bf"/><path d="M828.94,1458.35a2.49,2.49,0,0,1-1.16-.25,1.92,1.92,0,0,1-.73-.65,2.61,2.61,0,0,1-.37-.92,5.29,5.29,0,0,1-.11-1.06,4.53,4.53,0,0,1,.2-1.37,2.92,2.92,0,0,1,.55-1,2.45,2.45,0,0,1,.91-.68,3.06,3.06,0,0,1,1.25-.24,3.77,3.77,0,0,1,.51,0l.43.1v-2.2h1.41v7l.11,1.15h-1.22l-.1-.63h0a1.83,1.83,0,0,1-.71.61A2,2,0,0,1,828.94,1458.35Zm.29-1a1.19,1.19,0,0,0,.87-.32.92.92,0,0,0,.32-.65v-3a1.78,1.78,0,0,0-.39-.13,2,2,0,0,0-.51,0,1.37,1.37,0,0,0-.72.17,1.35,1.35,0,0,0-.47.48,2.08,2.08,0,0,0-.26.7,4.44,4.44,0,0,0-.08.84,6.33,6.33,0,0,0,0,.76,2.22,2.22,0,0,0,.2.63,1.34,1.34,0,0,0,.39.43A1,1,0,0,0,829.23,1457.32Z" transform="translate(-724.94 -1372.28)" style="fill:#67c0bf"/><path d="M835.7,1458.35a2.44,2.44,0,0,1-1.9-.77,3.4,3.4,0,0,1-.71-2.35,3.71,3.71,0,0,1,.27-1.51,2.62,2.62,0,0,1,.67-1,2.31,2.31,0,0,1,.91-.49,3.29,3.29,0,0,1,.95-.15,5,5,0,0,1,.79.08,2.21,2.21,0,0,1,.86.39,2.38,2.38,0,0,1,.69.89,3.82,3.82,0,0,1,.28,1.58,4.27,4.27,0,0,1-.22,1.46,2.83,2.83,0,0,1-.59,1,2.3,2.3,0,0,1-.9.6A3.07,3.07,0,0,1,835.7,1458.35Zm.09-1a1,1,0,0,0,1-.57,3.19,3.19,0,0,0,.3-1.48,3.65,3.65,0,0,0-.27-1.55,1,1,0,0,0-.95-.56,1,1,0,0,0-1,.53,2.82,2.82,0,0,0-.3,1.38,7.32,7.32,0,0,0,0,.81,2.93,2.93,0,0,0,.17.72,1.28,1.28,0,0,0,.38.52A1,1,0,0,0,835.79,1457.32Z" transform="translate(-724.94 -1372.28)" style="fill:#67c0bf"/><path d="M841.38,1458.35a4.15,4.15,0,0,1-1.37-.21,3.09,3.09,0,0,1-.82-.4l.41-1a5.81,5.81,0,0,0,.78.37,2.53,2.53,0,0,0,1,.19,1,1,0,0,0,.63-.19.65.65,0,0,0,.26-.56.6.6,0,0,0-.29-.56,3.36,3.36,0,0,0-.73-.29c-.22-.06-.43-.13-.65-.21a2.25,2.25,0,0,1-.6-.3,1.65,1.65,0,0,1-.43-.48,1.53,1.53,0,0,1-.17-.74,1.73,1.73,0,0,1,.18-.81,1.7,1.7,0,0,1,.48-.58,2,2,0,0,1,.7-.35,2.82,2.82,0,0,1,.83-.12,3.28,3.28,0,0,1,1.23.23,3,3,0,0,1,.94.6l-.69.8a3.78,3.78,0,0,0-.7-.45,1.84,1.84,0,0,0-.75-.16,1.07,1.07,0,0,0-.59.16.63.63,0,0,0-.26.55.56.56,0,0,0,.31.54,5.17,5.17,0,0,0,.76.31c.21.07.43.14.65.23a2.43,2.43,0,0,1,.6.31,1.65,1.65,0,0,1,.43.48,1.5,1.5,0,0,1,.17.74,1.65,1.65,0,0,1-.63,1.39A2.64,2.64,0,0,1,841.38,1458.35Z" transform="translate(-724.94 -1372.28)" style="fill:#67c0bf"/><path d="M849.28,1458.35a2.49,2.49,0,0,1-1.16-.25,1.92,1.92,0,0,1-.73-.65,2.61,2.61,0,0,1-.37-.92,5.29,5.29,0,0,1-.11-1.06,4.88,4.88,0,0,1,.19-1.37,3.1,3.1,0,0,1,.56-1,2.45,2.45,0,0,1,.91-.68,3.06,3.06,0,0,1,1.25-.24,3.77,3.77,0,0,1,.51,0l.42.1v-2.2h1.42v7l.11,1.15h-1.23l-.09-.63h-.05a1.83,1.83,0,0,1-.71.61A2.07,2.07,0,0,1,849.28,1458.35Zm.29-1a1.21,1.21,0,0,0,.87-.32.9.9,0,0,0,.31-.65v-3a1.53,1.53,0,0,0-.38-.13,2,2,0,0,0-.52,0,1.33,1.33,0,0,0-.71.17,1.35,1.35,0,0,0-.47.48,2.08,2.08,0,0,0-.26.7,4.44,4.44,0,0,0-.08.84,6.33,6.33,0,0,0,0,.76,2.22,2.22,0,0,0,.2.63,1.34,1.34,0,0,0,.39.43A1,1,0,0,0,849.57,1457.32Z" transform="translate(-724.94 -1372.28)" style="fill:#67c0bf"/><path d="M856.23,1458.35a3.2,3.2,0,0,1-1.27-.23,2.21,2.21,0,0,1-.87-.61,2.69,2.69,0,0,1-.5-1,4.47,4.47,0,0,1-.16-1.2,4.16,4.16,0,0,1,.19-1.23,3.2,3.2,0,0,1,.56-1,2.71,2.71,0,0,1,.92-.71,3,3,0,0,1,1.26-.26,2.06,2.06,0,0,1,1.39.43,1.44,1.44,0,0,1,.52,1.19,1.65,1.65,0,0,1-.35,1.08,2.29,2.29,0,0,1-.86.64,4.27,4.27,0,0,1-1.09.29,8.88,8.88,0,0,1-1.09.08,2.53,2.53,0,0,0,.12.53,1.72,1.72,0,0,0,.28.47,1.18,1.18,0,0,0,.45.32,1.62,1.62,0,0,0,.66.12,2.14,2.14,0,0,0,.91-.18,5,5,0,0,0,.6-.33l.44.92a2,2,0,0,1-.25.17,2.36,2.36,0,0,1-.45.22,4,4,0,0,1-.63.18A3.21,3.21,0,0,1,856.23,1458.35Zm-1.39-3.51.61,0a3.19,3.19,0,0,0,.71-.14,1.76,1.76,0,0,0,.59-.32.64.64,0,0,0,.25-.54.66.66,0,0,0-.2-.51.75.75,0,0,0-.52-.18,1.28,1.28,0,0,0-.63.15,1.84,1.84,0,0,0-.44.39,1.76,1.76,0,0,0-.27.55A2.3,2.3,0,0,0,854.84,1454.84Z" transform="translate(-724.94 -1372.28)" style="fill:#67c0bf"/><path d="M859.42,1453.32l-.11-1h1.21l.12.73a2.1,2.1,0,0,1,.78-.67,2.33,2.33,0,0,1,1.06-.24,1.94,1.94,0,0,1,1.41.5,2.08,2.08,0,0,1,.5,1.53v4H863v-3.71a2.15,2.15,0,0,0-.16-.89c-.11-.25-.35-.37-.74-.37a1.13,1.13,0,0,0-.88.37,1.11,1.11,0,0,0-.34.8v3.8h-1.42Z" transform="translate(-724.94 -1372.28)" style="fill:#67c0bf"/><path d="M867.74,1458.35a2.47,2.47,0,0,1-1-.17,1.25,1.25,0,0,1-.56-.43,1.43,1.43,0,0,1-.24-.63,4.52,4.52,0,0,1-.06-.74v-6.31h1.43v2.24h1.62v1.07h-1.62v3a1,1,0,0,0,.22.74.88.88,0,0,0,.6.19,1.08,1.08,0,0,0,.44-.08,3.68,3.68,0,0,0,.34-.16l.36.9a2.21,2.21,0,0,1-.69.29A3,3,0,0,1,867.74,1458.35Z" transform="translate(-724.94 -1372.28)" style="fill:#67c0bf"/><path d="M872.41,1458.35a3.24,3.24,0,0,1-1.27-.23,2.17,2.17,0,0,1-.86-.61,2.54,2.54,0,0,1-.5-1,4.1,4.1,0,0,1-.16-1.2,3.86,3.86,0,0,1,.19-1.23,3,3,0,0,1,.56-1,2.67,2.67,0,0,1,.91-.71,3,3,0,0,1,1.26-.26,2.11,2.11,0,0,1,1.4.43,1.46,1.46,0,0,1,.51,1.19,1.64,1.64,0,0,1-.34,1.08,2.37,2.37,0,0,1-.86.64,4.34,4.34,0,0,1-1.1.29,8.6,8.6,0,0,1-1.08.08,1.69,1.69,0,0,0,.12.53,1.47,1.47,0,0,0,.27.47,1.18,1.18,0,0,0,.45.32,1.62,1.62,0,0,0,.66.12,2.11,2.11,0,0,0,.91-.18,3.82,3.82,0,0,0,.6-.33l.45.92-.26.17a2.36,2.36,0,0,1-.45.22,4,4,0,0,1-.63.18A3.21,3.21,0,0,1,872.41,1458.35Zm-1.39-3.51.61,0a3.4,3.4,0,0,0,.72-.14,1.86,1.86,0,0,0,.59-.32.66.66,0,0,0,.24-.54.63.63,0,0,0-.2-.51.73.73,0,0,0-.52-.18,1.21,1.21,0,0,0-.62.15,1.71,1.71,0,0,0-.45.39,1.76,1.76,0,0,0-.27.55A2.76,2.76,0,0,0,871,1454.84Z" transform="translate(-724.94 -1372.28)" style="fill:#67c0bf"/><path d="M877.26,1458.35a4.09,4.09,0,0,1-1.36-.21,2.94,2.94,0,0,1-.82-.4l.41-1a5.81,5.81,0,0,0,.78.37,2.53,2.53,0,0,0,1,.19,1,1,0,0,0,.62-.19.63.63,0,0,0,.27-.56.59.59,0,0,0-.3-.56,3.26,3.26,0,0,0-.72-.29l-.66-.21a2.18,2.18,0,0,1-.59-.3,1.68,1.68,0,0,1-.44-.48,1.53,1.53,0,0,1-.16-.74,1.73,1.73,0,0,1,.18-.81,1.7,1.7,0,0,1,.48-.58,2,2,0,0,1,.69-.35,2.87,2.87,0,0,1,.83-.12,3.34,3.34,0,0,1,1.24.23,3,3,0,0,1,.93.6l-.68.8a3.54,3.54,0,0,0-.71-.45,1.8,1.8,0,0,0-.74-.16,1.08,1.08,0,0,0-.6.16.62.62,0,0,0-.25.55.56.56,0,0,0,.31.54,5.5,5.5,0,0,0,.75.31c.22.07.44.14.66.23a2.2,2.2,0,0,1,.59.31,1.52,1.52,0,0,1,.43.48,1.4,1.4,0,0,1,.17.74,1.65,1.65,0,0,1-.63,1.39A2.62,2.62,0,0,1,877.26,1458.35Z" transform="translate(-724.94 -1372.28)" style="fill:#67c0bf"/><path d="M883.07,1452.52a9.58,9.58,0,0,1,1.32-.3,8.07,8.07,0,0,1,1.1-.09,2.69,2.69,0,0,1,2.12.78,3.31,3.31,0,0,1,.69,2.28,3.53,3.53,0,0,1-.69,2.34,2.3,2.3,0,0,1-1.86.82,2.6,2.6,0,0,1-.68-.1,2.33,2.33,0,0,1-.57-.23v2.6h-1.43Zm2.54,4.66a1.07,1.07,0,0,0,.92-.47,2.5,2.5,0,0,0,.33-1.42,3,3,0,0,0-.32-1.43,1.16,1.16,0,0,0-1.14-.59,3.73,3.73,0,0,0-.47,0l-.43.1v3.48a1.33,1.33,0,0,0,.51.22A2.58,2.58,0,0,0,885.61,1457.18Z" transform="translate(-724.94 -1372.28)" style="fill:#67c0bf"/><path d="M891.55,1458.35a2.42,2.42,0,0,1-1.13-.24,1.89,1.89,0,0,1-.72-.62,2.77,2.77,0,0,1-.38-.91,5.52,5.52,0,0,1-.11-1.09,3.58,3.58,0,0,1,.79-2.44,2.88,2.88,0,0,1,2.32-.92,6.66,6.66,0,0,1,.9.09,6.13,6.13,0,0,1,1.24.32v4.51l.12,1.12h-1.24l-.08-.62h0a1.9,1.9,0,0,1-.65.57A2,2,0,0,1,891.55,1458.35Zm.31-1a1.2,1.2,0,0,0,.89-.32,1,1,0,0,0,.3-.68v-3a1.77,1.77,0,0,0-.38-.11,2.33,2.33,0,0,0-.53-.06,1.38,1.38,0,0,0-.72.19,1.41,1.41,0,0,0-.47.5,2.17,2.17,0,0,0-.26.73,5.08,5.08,0,0,0-.08.89,4,4,0,0,0,.06.7,1.58,1.58,0,0,0,.2.6,1,1,0,0,0,.38.42A1,1,0,0,0,891.86,1457.32Z" transform="translate(-724.94 -1372.28)" style="fill:#67c0bf"/><path d="M896,1453.24l-.11-.93h1.18l.15.84a1.47,1.47,0,0,1,.6-.76,1.57,1.57,0,0,1,.85-.26,2.46,2.46,0,0,1,.53.06,1.43,1.43,0,0,1,.43.16l-.25,1.16a2.19,2.19,0,0,0-.41-.15,1.63,1.63,0,0,0-.45-.06,1,1,0,0,0-.78.34,1.26,1.26,0,0,0-.31.84v3.69H896Z" transform="translate(-724.94 -1372.28)" style="fill:#67c0bf"/><path d="M902.2,1458.35a2.42,2.42,0,0,1-1.13-.24,1.89,1.89,0,0,1-.72-.62,2.57,2.57,0,0,1-.38-.91,5.52,5.52,0,0,1-.11-1.09,3.58,3.58,0,0,1,.79-2.44,2.88,2.88,0,0,1,2.32-.92,6.66,6.66,0,0,1,.9.09,6.13,6.13,0,0,1,1.24.32v4.51l.12,1.12H904l-.08-.62h0a1.9,1.9,0,0,1-.65.57A2,2,0,0,1,902.2,1458.35Zm.31-1a1.16,1.16,0,0,0,.88-.32.93.93,0,0,0,.31-.68v-3a1.77,1.77,0,0,0-.38-.11,2.33,2.33,0,0,0-.53-.06,1.38,1.38,0,0,0-.72.19,1.41,1.41,0,0,0-.47.5,2.17,2.17,0,0,0-.26.73,5.08,5.08,0,0,0-.08.89,4,4,0,0,0,.06.7,1.58,1.58,0,0,0,.2.6,1,1,0,0,0,.38.42A1,1,0,0,0,902.51,1457.32Z" transform="translate(-724.94 -1372.28)" style="fill:#67c0bf"/><path d="M807.45,1472.33a2,2,0,0,1-1.49-.52,2.12,2.12,0,0,1-.51-1.54v-4h1.43V1470a1.91,1.91,0,0,0,.18.88c.11.24.37.35.77.35a1.1,1.1,0,0,0,.83-.35,1.08,1.08,0,0,0,.35-.77v-3.83h1.43v4.88l.09,1h-1.22l-.1-.69h0a2,2,0,0,1-.77.65A2.29,2.29,0,0,1,807.45,1472.33Z" transform="translate(-724.94 -1372.28)" style="fill:#67c0bf"/><path d="M812,1467.31l-.11-1h1.19l.12.72a2,2,0,0,1,.74-.66,2.07,2.07,0,0,1,1-.24,2.19,2.19,0,0,1,1,.22,1.62,1.62,0,0,1,.67.72,1.82,1.82,0,0,1,.73-.7,2.19,2.19,0,0,1,1-.24,1.88,1.88,0,0,1,1.41.52,2.13,2.13,0,0,1,.5,1.55v4h-1.43v-3.69a2.26,2.26,0,0,0-.16-.9c-.11-.25-.36-.37-.75-.37a1,1,0,0,0-.78.34,1.17,1.17,0,0,0-.3.8v3.82h-1.43v-3.69a2.49,2.49,0,0,0-.15-.87c-.1-.27-.35-.4-.76-.4a.94.94,0,0,0-.79.35,1.28,1.28,0,0,0-.29.82v3.79H812Z" transform="translate(-724.94 -1372.28)" style="fill:#67c0bf"/><path d="M825.91,1472.34a4.09,4.09,0,0,1-1.36-.21,3.09,3.09,0,0,1-.82-.4l.41-1a5.81,5.81,0,0,0,.78.37,2.53,2.53,0,0,0,1,.19,1,1,0,0,0,.62-.19.63.63,0,0,0,.27-.56.59.59,0,0,0-.3-.56,3.26,3.26,0,0,0-.72-.29l-.66-.21a1.93,1.93,0,0,1-.59-.3,1.46,1.46,0,0,1-.44-.48,1.53,1.53,0,0,1-.16-.74,1.76,1.76,0,0,1,.18-.81,1.7,1.7,0,0,1,.48-.58,2,2,0,0,1,.69-.35,2.87,2.87,0,0,1,.83-.12,3.15,3.15,0,0,1,1.24.24,2.8,2.8,0,0,1,.93.59l-.68.8a3.1,3.1,0,0,0-.71-.44,1.66,1.66,0,0,0-.74-.17,1,1,0,0,0-.6.17.59.59,0,0,0-.25.54.56.56,0,0,0,.31.54,4.47,4.47,0,0,0,.75.31l.66.23a2.2,2.2,0,0,1,.59.31,1.45,1.45,0,0,1,.43.49,1.34,1.34,0,0,1,.17.73,1.64,1.64,0,0,1-.63,1.39A2.56,2.56,0,0,1,825.91,1472.34Z" transform="translate(-724.94 -1372.28)" style="fill:#67c0bf"/><path d="M831.54,1472.34a2.46,2.46,0,0,1-1.9-.77,3.4,3.4,0,0,1-.7-2.35,3.9,3.9,0,0,1,.26-1.51,2.64,2.64,0,0,1,.68-1,2.48,2.48,0,0,1,.9-.49,3.3,3.3,0,0,1,1-.15,4.9,4.9,0,0,1,.78.08,2.15,2.15,0,0,1,.86.39,2.38,2.38,0,0,1,.69.89,3.67,3.67,0,0,1,.28,1.58,4.55,4.55,0,0,1-.21,1.46,2.84,2.84,0,0,1-.6,1,2.34,2.34,0,0,1-.89.6A3.12,3.12,0,0,1,831.54,1472.34Zm.1-1a1,1,0,0,0,1-.57,3.16,3.16,0,0,0,.3-1.48,3.69,3.69,0,0,0-.27-1.55,1,1,0,0,0-1-.56,1,1,0,0,0-.95.54,2.75,2.75,0,0,0-.31,1.37,7.34,7.34,0,0,0,.05.81,2.24,2.24,0,0,0,.17.72,1.2,1.2,0,0,0,.38.52A.94.94,0,0,0,831.64,1471.31Z" transform="translate(-724.94 -1372.28)" style="fill:#67c0bf"/><path d="M835.57,1467.23l-.11-.93h1.17l.15.84a1.58,1.58,0,0,1,.6-.76,1.59,1.59,0,0,1,.85-.26,2.39,2.39,0,0,1,.53.06,1.33,1.33,0,0,1,.43.16l-.25,1.16a3.06,3.06,0,0,0-.4-.15,1.74,1.74,0,0,0-.45-.06,1,1,0,0,0-.78.34,1.21,1.21,0,0,0-.31.84v3.69h-1.43Z" transform="translate(-724.94 -1372.28)" style="fill:#67c0bf"/><path d="M840,1467.23l-.11-.93h1.18l.14.84a1.58,1.58,0,0,1,.6-.76,1.63,1.63,0,0,1,.86-.26,2.31,2.31,0,0,1,.52.06,1.5,1.5,0,0,1,.44.16l-.26,1.16a3.06,3.06,0,0,0-.4-.15,1.74,1.74,0,0,0-.45-.06,1,1,0,0,0-.78.34,1.26,1.26,0,0,0-.31.84v3.69H840Z" transform="translate(-724.94 -1372.28)" style="fill:#67c0bf"/><path d="M845.13,1465.39a.84.84,0,0,1-.59-.22.76.76,0,0,1-.22-.56.77.77,0,0,1,.22-.55.8.8,0,0,1,.59-.22.85.85,0,0,1,.61.22.74.74,0,0,1,.22.55.73.73,0,0,1-.23.55A.83.83,0,0,1,845.13,1465.39Zm-.7.91h1.43v5.86h-1.43Z" transform="translate(-724.94 -1372.28)" style="fill:#67c0bf"/><path d="M849,1472.34a4.11,4.11,0,0,1-1.37-.21,3.09,3.09,0,0,1-.82-.4l.41-1a5.81,5.81,0,0,0,.78.37,2.53,2.53,0,0,0,1,.19,1,1,0,0,0,.62-.19.63.63,0,0,0,.27-.56.59.59,0,0,0-.3-.56,3.07,3.07,0,0,0-.72-.29l-.66-.21a1.93,1.93,0,0,1-.59-.3,1.33,1.33,0,0,1-.43-.48,1.42,1.42,0,0,1-.17-.74,1.76,1.76,0,0,1,.18-.81,1.7,1.7,0,0,1,.48-.58,2,2,0,0,1,.7-.35,2.81,2.81,0,0,1,.82-.12,3.15,3.15,0,0,1,1.24.24,2.85,2.85,0,0,1,.94.59l-.69.8a3.1,3.1,0,0,0-.71-.44,1.63,1.63,0,0,0-.74-.17,1,1,0,0,0-.6.17.59.59,0,0,0-.25.54.56.56,0,0,0,.31.54,4.27,4.27,0,0,0,.76.31l.65.23a2.2,2.2,0,0,1,.59.31,1.6,1.6,0,0,1,.44.49,1.44,1.44,0,0,1,.16.73,1.64,1.64,0,0,1-.63,1.39A2.55,2.55,0,0,1,849,1472.34Z" transform="translate(-724.94 -1372.28)" style="fill:#67c0bf"/><path d="M854.66,1472.34a2.48,2.48,0,0,1-1.91-.77,3.4,3.4,0,0,1-.7-2.35,3.9,3.9,0,0,1,.26-1.51,2.64,2.64,0,0,1,.68-1,2.48,2.48,0,0,1,.9-.49,3.36,3.36,0,0,1,1-.15,4.9,4.9,0,0,1,.78.08,2.15,2.15,0,0,1,.86.39,2.28,2.28,0,0,1,.69.89,3.67,3.67,0,0,1,.28,1.58,4.55,4.55,0,0,1-.21,1.46,2.84,2.84,0,0,1-.6,1,2.34,2.34,0,0,1-.89.6A3.07,3.07,0,0,1,854.66,1472.34Zm.09-1a1,1,0,0,0,1-.57,3.16,3.16,0,0,0,.3-1.48,3.69,3.69,0,0,0-.27-1.55,1,1,0,0,0-1-.56,1,1,0,0,0-1,.54,2.75,2.75,0,0,0-.31,1.37,7.34,7.34,0,0,0,0,.81,2.24,2.24,0,0,0,.17.72,1.28,1.28,0,0,0,.38.52A.94.94,0,0,0,854.75,1471.31Z" transform="translate(-724.94 -1372.28)" style="fill:#67c0bf"/><path d="M861.12,1466.51a9.08,9.08,0,0,1,1.31-.29,6.87,6.87,0,0,1,1.1-.1,2.69,2.69,0,0,1,2.12.78,3.32,3.32,0,0,1,.69,2.28,3.51,3.51,0,0,1-.69,2.34,2.3,2.3,0,0,1-1.86.82,2.24,2.24,0,0,1-.68-.1,2.33,2.33,0,0,1-.57-.23v2.6h-1.42Zm2.53,4.66a1.07,1.07,0,0,0,.92-.47,2.5,2.5,0,0,0,.33-1.42,3,3,0,0,0-.32-1.43,1.16,1.16,0,0,0-1.14-.58,3.18,3.18,0,0,0-.9.14v3.47a1.33,1.33,0,0,0,.51.22A2.58,2.58,0,0,0,863.65,1471.17Z" transform="translate(-724.94 -1372.28)" style="fill:#67c0bf"/><path d="M870.05,1472.34a3.4,3.4,0,0,1-1.27-.22,2.26,2.26,0,0,1-.87-.62,2.69,2.69,0,0,1-.5-1,4.1,4.1,0,0,1-.16-1.2,3.86,3.86,0,0,1,.19-1.23,3.31,3.31,0,0,1,.56-1,2.71,2.71,0,0,1,.92-.71,3,3,0,0,1,1.26-.26,2.08,2.08,0,0,1,1.39.43,1.44,1.44,0,0,1,.52,1.19,1.61,1.61,0,0,1-.35,1.08,2.29,2.29,0,0,1-.86.64,4.23,4.23,0,0,1-1.1.29,7.05,7.05,0,0,1-1.08.08,2.4,2.4,0,0,0,.12.53,1.8,1.8,0,0,0,.27.47,1.36,1.36,0,0,0,.45.32,1.53,1.53,0,0,0,.66.13,2.16,2.16,0,0,0,.92-.18,6.75,6.75,0,0,0,.6-.34l.44.92a2,2,0,0,1-.25.17,2.36,2.36,0,0,1-.45.22,5.35,5.35,0,0,1-.63.19A3.81,3.81,0,0,1,870.05,1472.34Zm-1.39-3.51.61,0a3.31,3.31,0,0,0,.71-.14,1.76,1.76,0,0,0,.59-.32.67.67,0,0,0,.25-.54.68.68,0,0,0-.2-.51.75.75,0,0,0-.52-.18,1.18,1.18,0,0,0-.63.16,1.49,1.49,0,0,0-.44.39,1.61,1.61,0,0,0-.27.54A2.3,2.3,0,0,0,868.66,1468.83Z" transform="translate(-724.94 -1372.28)" style="fill:#67c0bf"/><path d="M873.24,1467.23l-.11-.93h1.18l.14.84a1.58,1.58,0,0,1,.6-.76,1.63,1.63,0,0,1,.86-.26,2.31,2.31,0,0,1,.52.06,1.5,1.5,0,0,1,.44.16l-.25,1.16a3.22,3.22,0,0,0-.41-.15,1.68,1.68,0,0,0-.45-.06,1,1,0,0,0-.78.34,1.26,1.26,0,0,0-.31.84v3.69h-1.43Z" transform="translate(-724.94 -1372.28)" style="fill:#67c0bf"/><path d="M877.7,1466a4.78,4.78,0,0,1,.06-.73,1.62,1.62,0,0,1,.27-.68,1.81,1.81,0,0,1,.63-.51,2.66,2.66,0,0,1,1.11-.2,3.73,3.73,0,0,1,.84.11,3,3,0,0,1,.75.27l-.35.92a3.8,3.8,0,0,0-.54-.18,2,2,0,0,0-.53-.07.77.77,0,0,0-.64.24,1.2,1.2,0,0,0-.19.73v.43h1.78v1.08h-1.78v7.23H877.7Z" transform="translate(-724.94 -1372.28)" style="fill:#67c0bf"/><path d="M884,1472.34a3.4,3.4,0,0,1-1.27-.22,2.33,2.33,0,0,1-.87-.62,2.69,2.69,0,0,1-.5-1,4.47,4.47,0,0,1-.16-1.2,4.16,4.16,0,0,1,.19-1.23,3.31,3.31,0,0,1,.56-1,2.71,2.71,0,0,1,.92-.71,3,3,0,0,1,1.26-.26,2.06,2.06,0,0,1,1.39.43,1.44,1.44,0,0,1,.52,1.19,1.61,1.61,0,0,1-.35,1.08,2.29,2.29,0,0,1-.86.64,4.27,4.27,0,0,1-1.09.29,7.27,7.27,0,0,1-1.09.08,2.4,2.4,0,0,0,.12.53,1.8,1.8,0,0,0,.27.47,1.31,1.31,0,0,0,.46.32,1.47,1.47,0,0,0,.66.13,2.14,2.14,0,0,0,.91-.18,6.75,6.75,0,0,0,.6-.34l.44.92a2,2,0,0,1-.25.17,2.36,2.36,0,0,1-.45.22,5.35,5.35,0,0,1-.63.19A3.81,3.81,0,0,1,884,1472.34Zm-1.39-3.51.61,0a3.19,3.19,0,0,0,.71-.14,1.76,1.76,0,0,0,.59-.32.64.64,0,0,0,.25-.54.68.68,0,0,0-.2-.51.75.75,0,0,0-.52-.18,1.18,1.18,0,0,0-.63.16,1.49,1.49,0,0,0-.44.39,1.61,1.61,0,0,0-.27.54A2.3,2.3,0,0,0,882.61,1468.83Z" transform="translate(-724.94 -1372.28)" style="fill:#67c0bf"/><path d="M887.85,1465.39a.82.82,0,0,1-.59-.22.76.76,0,0,1-.22-.56.77.77,0,0,1,.22-.55.78.78,0,0,1,.59-.22.81.81,0,0,1,.6.22.71.71,0,0,1,.23.55.76.76,0,0,1-.23.55A.85.85,0,0,1,887.85,1465.39Zm-.71.91h1.43v5.86h-1.43Z" transform="translate(-724.94 -1372.28)" style="fill:#67c0bf"/><path d="M891.94,1472.34a2.49,2.49,0,0,1-1-.17,1.25,1.25,0,0,1-.56-.43,1.43,1.43,0,0,1-.24-.63,4.52,4.52,0,0,1-.06-.74v-6.31h1.43v2.24h1.62v1.07H891.5v3a1,1,0,0,0,.22.74.89.89,0,0,0,.6.2,1.08,1.08,0,0,0,.44-.09,2.16,2.16,0,0,0,.34-.16l.36.9a2.39,2.39,0,0,1-.68.3A3.52,3.52,0,0,1,891.94,1472.34Z" transform="translate(-724.94 -1372.28)" style="fill:#67c0bf"/><path d="M896.41,1472.34a2.46,2.46,0,0,1-1.9-.77,3.4,3.4,0,0,1-.7-2.35,3.9,3.9,0,0,1,.26-1.51,2.74,2.74,0,0,1,.67-1,2.6,2.6,0,0,1,.91-.49,3.29,3.29,0,0,1,1-.15,4.91,4.91,0,0,1,.79.08,2.15,2.15,0,0,1,.86.39,2.38,2.38,0,0,1,.69.89,3.67,3.67,0,0,1,.28,1.58,4.55,4.55,0,0,1-.21,1.46,3,3,0,0,1-.6,1,2.34,2.34,0,0,1-.89.6A3.17,3.17,0,0,1,896.41,1472.34Zm.1-1a1,1,0,0,0,1-.57,3.16,3.16,0,0,0,.3-1.48,3.69,3.69,0,0,0-.27-1.55,1,1,0,0,0-1-.56,1,1,0,0,0-.95.54,2.65,2.65,0,0,0-.31,1.37c0,.27,0,.54,0,.81a2.53,2.53,0,0,0,.18.72,1.2,1.2,0,0,0,.38.52A.93.93,0,0,0,896.51,1471.31Z" transform="translate(-724.94 -1372.28)" style="fill:#67c0bf"/><path d="M901,1472.34a.86.86,0,0,1-.63-.22.81.81,0,0,1-.23-.59.75.75,0,0,1,.23-.55.78.78,0,0,1,.59-.23.89.89,0,0,1,.63.21.73.73,0,0,1,.22.56.83.83,0,0,1-.21.58A.75.75,0,0,1,901,1472.34Z" transform="translate(-724.94 -1372.28)" style="fill:#67c0bf"/><text transform="translate(115.99 131.47) scale(0.57 1)" style="font-size:39.26658248901367px;fill:#fbb03b;font-family:BreeGRK-Regular, Bree GRK">&gt;&gt;</text><text transform="translate(252.45 86.17) scale(0.98 1)" style="font-size:19.79046058654785px;fill:#fff;font-family:BreeGRK-Regular, Bree GRK">Imp<tspan x="31.94" y="0" style="letter-spacing:-0.007988164078798392em">l</tspan><tspan x="38.18" y="0">an</tspan><tspan x="59.51" y="0" style="letter-spacing:-0.014965168147622308em">t</tspan><tspan x="66.16" y="0">odontia</tspan></text><text transform="translate(260.69 110.84)" style="font-size:12px;fill:#67c0bf;font-family:BreeGRK-Regular, Bree GRK"><tspan style="letter-spacing:-0.010009765625em">S</tspan><tspan x="6.34" y="0">ubsti</tspan><tspan x="31.44" y="0" style="letter-spacing:-0.009969075520833334em">t</tspan><tspan x="35.53" y="0">ui</tspan><tspan x="44.94" y="0" style="letter-spacing:-0.012980143229166666em">ç</tspan><tspan x="50.36" y="0">ão de den</tspan><tspan x="98.94" y="0" style="letter-spacing:-0.0150146484375em">t</tspan><tspan x="102.97" y="0">es </tspan><tspan x="-2.56" y="14.4">pe</tspan><tspan x="9.53" y="14.4" style="letter-spacing:-0.022989908854166668em">r</tspan><tspan x="13.7" y="14.4">didos por imp</tspan><tspan x="82.15" y="14.4" style="letter-spacing:-0.008015950520833334em">l</tspan><tspan x="85.93" y="14.4">an</tspan><tspan x="98.87" y="14.4" style="letter-spacing:-0.014973958333333334em">t</tspan><tspan x="102.9" y="14.4">es.</tspan></text><text transform="translate(304.96 161.14) scale(0.56 1)" style="font-size:40.41352844238281px;fill:#fbb03b;font-family:BreeGRK-Regular, Bree GRK">&gt;&gt;</text><text transform="translate(474.45 98.17) scale(0.98 1)" style="font-size:19.79046058654785px;fill:#fff;font-family:BreeGRK-Regular, Bree GRK">Endodontia</text><text transform="translate(468.02 117.84)" style="font-size:12px;fill:#67c0bf;font-family:BreeGRK-Regular, Bree GRK"><tspan style="letter-spacing:-0.0679931640625em">T</tspan><tspan x="5.64" y="0" style="letter-spacing:-0.022989908854166668em">r</tspan><tspan x="9.82" y="0">a</tspan><tspan x="16.28" y="0" style="letter-spacing:-0.0150146484375em">t</tspan><tspan x="20.32" y="0">amen</tspan><tspan x="48.69" y="0" style="letter-spacing:-0.014973958333333334em">t</tspan><tspan x="52.73" y="0">o de </tspan><tspan x="76.17" y="0" style="letter-spacing:-0.012980143229166666em">c</tspan><tspan x="81.6" y="0">anal e </tspan><tspan x="11.78" y="14.4">saúde in</tspan><tspan x="53.82" y="14.4" style="letter-spacing:-0.0150146484375em">t</tspan><tspan x="57.85" y="14.4">erna dos </tspan><tspan x="38.5" y="28.8">den</tspan><tspan x="57.16" y="28.8" style="letter-spacing:-0.0150146484375em">t</tspan><tspan x="61.19" y="28.8">es.</tspan></text><text transform="translate(514.96 183.14) scale(0.56 1)" style="font-size:40.41352844238281px;fill:#fbb03b;font-family:BreeGRK-Regular, Bree GRK">&gt;&gt;</text><text transform="translate(442.08 289.17) scale(0.98 1)" style="font-size:19.79046058654785px;fill:#fff;font-family:BreeGRK-Regular, Bree GRK">Harmoni<tspan x="73.18" y="0" style="letter-spacing:-0.019970410196995986em">z</tspan><tspan x="80.98" y="0">a</tspan><tspan x="91.65" y="0" style="letter-spacing:-0.012942848127673346em">ç</tspan><tspan x="100.59" y="0" style="letter-spacing:-0.00005055800049872401em">ão</tspan><tspan x="21.49" y="23.75">O</tspan><tspan x="34.63" y="23.75" style="letter-spacing:-0.023003890226919423em">r</tspan><tspan x="41.52" y="23.75">a</tspan><tspan x="52.19" y="23.75" style="letter-spacing:-0.015976328157596784em">f</tspan><tspan x="58.48" y="23.75">acial</tspan></text><text transform="translate(463.75 329.84)" style="font-size:12px;fill:#67c0bf;font-family:BreeGRK-Regular, Bree GRK">Es<tspan x="11.14" y="0" style="letter-spacing:-0.0150146484375em">t</tspan><tspan x="15.17" y="0">éti</tspan><tspan x="27.95" y="0" style="letter-spacing:-0.012980143229166666em">c</tspan><tspan x="33.37" y="0">a </tspan><tspan x="42.31" y="0" style="letter-spacing:-0.0159912109375em">f</tspan><tspan x="46.13" y="0">acial e </tspan><tspan x="-11.81" y="14.4">equilíbrio do </tspan><tspan x="54.34" y="14.4" style="letter-spacing:-0.0029703776041666665em">s</tspan><tspan x="59.33" y="14.4" style="letter-spacing:-0.000040690104166666664em">orri</tspan><tspan x="77.44" y="14.4" style="letter-spacing:-0.0030110677083333335em">s</tspan><tspan x="82.43" y="14.4">o.</tspan></text><text transform="translate(487.96 377.14) scale(0.56 1)" style="font-size:40.41352844238281px;fill:#fbb03b;font-family:BreeGRK-Regular, Bree GRK">&gt;&gt;</text><text transform="translate(282.45 441.17) scale(0.98 1)" style="font-size:19.79046058654785px;fill:#fff;font-family:BreeGRK-Regular, Bree GRK">Odon<tspan x="44.96" y="0" style="letter-spacing:-0.01501572614812103em">t</tspan><tspan x="51.61" y="0">opediatria</tspan></text><path d="M1026.21,1831.26a3.35,3.35,0,0,1-2.59-1,4.31,4.31,0,0,1-1-3.06,5.2,5.2,0,0,1,.33-2,3.64,3.64,0,0,1,.83-1.29,3.09,3.09,0,0,1,1.16-.7,4.15,4.15,0,0,1,1.28-.22,3.66,3.66,0,0,1,1.5.33,2.92,2.92,0,0,1,1.26,1.15l-1,.76a3,3,0,0,0-.8-.74,1.88,1.88,0,0,0-1-.26,1.78,1.78,0,0,0-1.49.74,3.4,3.4,0,0,0-.57,2.1,4,4,0,0,0,.52,2.18,1.81,1.81,0,0,0,1.62.8,2.14,2.14,0,0,0,1-.22,3.42,3.42,0,0,0,.91-.62l.76,1a4.07,4.07,0,0,1-1.26.82A3.89,3.89,0,0,1,1026.21,1831.26Z" transform="translate(-724.94 -1372.28)" style="fill:#67c0bf"/><path d="M1031.63,1831.29a1.94,1.94,0,0,1-1.49-.54,2.19,2.19,0,0,1-.5-1.58v-4.09h1.42v3.83a2,2,0,0,0,.18.91c.11.24.37.36.77.36a1.22,1.22,0,0,0,1.18-1.15v-4h1.43v5l.09,1h-1.22l-.1-.71h0a2,2,0,0,1-.77.66A2.3,2.3,0,0,1,1031.63,1831.29Z" transform="translate(-724.94 -1372.28)" style="fill:#67c0bf"/><path d="M1036.85,1824.15a.81.81,0,0,1-.6-.23.83.83,0,0,1-.22-.58.77.77,0,0,1,.82-.79.79.79,0,0,1,.83.79.76.76,0,0,1-.24.57A.78.78,0,0,1,1036.85,1824.15Zm-.71.93h1.43v6h-1.43Z" transform="translate(-724.94 -1372.28)" style="fill:#67c0bf"/><path d="M1041.13,1831.3a2.4,2.4,0,0,1-1.16-.26,1.84,1.84,0,0,1-.72-.66,2.66,2.66,0,0,1-.37-1,5,5,0,0,1-.11-1.1,4.74,4.74,0,0,1,.19-1.4,3,3,0,0,1,.56-1.09,2.44,2.44,0,0,1,.9-.69,2.94,2.94,0,0,1,1.25-.25,3.52,3.52,0,0,1,.51,0l.43.1v-2.26H1044v7.15l.1,1.19h-1.22l-.1-.65h0a1.81,1.81,0,0,1-.7.62A2,2,0,0,1,1041.13,1831.3Zm.29-1.06a1.18,1.18,0,0,0,.87-.32,1,1,0,0,0,.32-.67v-3.11a1.6,1.6,0,0,0-.39-.14,2,2,0,0,0-.51,0,1.31,1.31,0,0,0-.71.17,1.44,1.44,0,0,0-.48.5,2.55,2.55,0,0,0-.26.72,4.74,4.74,0,0,0-.08.86,4.93,4.93,0,0,0,.06.78,2,2,0,0,0,.2.65,1.16,1.16,0,0,0,.38.44A1,1,0,0,0,1041.42,1830.24Z" transform="translate(-724.94 -1372.28)" style="fill:#67c0bf"/><path d="M1047.62,1831.3a2.38,2.38,0,0,1-1.12-.24,1.87,1.87,0,0,1-.72-.64,2.62,2.62,0,0,1-.38-.94,5.13,5.13,0,0,1-.11-1.12,3.83,3.83,0,0,1,.78-2.52,2.84,2.84,0,0,1,2.32-.94,6.66,6.66,0,0,1,.9.09,6,6,0,0,1,1.24.33V1830l.12,1.16h-1.24l-.08-.64h0a2,2,0,0,1-.65.59A1.94,1.94,0,0,1,1047.62,1831.3Zm.32-1.06a1.17,1.17,0,0,0,.88-.32,1,1,0,0,0,.3-.71v-3.11a1.48,1.48,0,0,0-.38-.11,2.26,2.26,0,0,0-.53-.06,1.34,1.34,0,0,0-.71.19,1.44,1.44,0,0,0-.47.51,2.43,2.43,0,0,0-.26.76,4.57,4.57,0,0,0-.08.92,5.55,5.55,0,0,0,0,.72,2,2,0,0,0,.2.62,1.24,1.24,0,0,0,.39.43A1,1,0,0,0,1047.94,1830.24Z" transform="translate(-724.94 -1372.28)" style="fill:#67c0bf"/><path d="M1054.12,1831.3a2.37,2.37,0,0,1-1.16-.26,1.87,1.87,0,0,1-.73-.66,2.86,2.86,0,0,1-.37-1,5.62,5.62,0,0,1-.11-1.1,4.73,4.73,0,0,1,.2-1.4,3,3,0,0,1,.55-1.09,2.48,2.48,0,0,1,.91-.69,2.88,2.88,0,0,1,1.25-.25,3.77,3.77,0,0,1,.51,0l.42.1v-2.26H1057v7.15l.11,1.19h-1.23l-.09-.65h0a1.84,1.84,0,0,1-.71.62A2,2,0,0,1,1054.12,1831.3Zm.29-1.06a1.21,1.21,0,0,0,.87-.32,1,1,0,0,0,.31-.67v-3.11a1.51,1.51,0,0,0-.38-.14,2.09,2.09,0,0,0-.52,0,1.31,1.31,0,0,0-.71.17,1.44,1.44,0,0,0-.48.5,2.27,2.27,0,0,0-.25.72,4,4,0,0,0-.08.86,6.53,6.53,0,0,0,0,.78,2.26,2.26,0,0,0,.2.65,1.25,1.25,0,0,0,.38.44A1,1,0,0,0,1054.41,1830.24Z" transform="translate(-724.94 -1372.28)" style="fill:#67c0bf"/><path d="M1060.87,1831.3a2.41,2.41,0,0,1-1.9-.8,3.52,3.52,0,0,1-.7-2.41,4.08,4.08,0,0,1,.26-1.55,2.68,2.68,0,0,1,.68-1,2.38,2.38,0,0,1,.9-.51,3.3,3.3,0,0,1,1-.15,4.06,4.06,0,0,1,.78.09,1.91,1.91,0,0,1,.86.39,2.5,2.5,0,0,1,.69.92,3.86,3.86,0,0,1,.28,1.62,4.48,4.48,0,0,1-.22,1.5,2.93,2.93,0,0,1-.59,1.06,2.36,2.36,0,0,1-.89.61A3,3,0,0,1,1060.87,1831.3Zm.1-1.06a1,1,0,0,0,1-.59,3.34,3.34,0,0,0,.3-1.52,3.86,3.86,0,0,0-.27-1.59,1,1,0,0,0-1-.58,1,1,0,0,0-1,.55,2.83,2.83,0,0,0-.31,1.41,7.73,7.73,0,0,0,0,.84,2.36,2.36,0,0,0,.17.74,1.32,1.32,0,0,0,.38.54A1,1,0,0,0,1061,1830.24Z" transform="translate(-724.94 -1372.28)" style="fill:#67c0bf"/><path d="M1066.55,1831.3a3.8,3.8,0,0,1-1.36-.22,2.65,2.65,0,0,1-.82-.41l.4-1a5.81,5.81,0,0,0,.78.37,2.54,2.54,0,0,0,1,.2,1,1,0,0,0,.63-.19.68.68,0,0,0,.26-.58.63.63,0,0,0-.29-.58,3.36,3.36,0,0,0-.73-.29l-.65-.22a2.43,2.43,0,0,1-.6-.31,1.5,1.5,0,0,1-.43-.5,1.58,1.58,0,0,1-.17-.76,1.84,1.84,0,0,1,.18-.83,1.77,1.77,0,0,1,.48-.6,2,2,0,0,1,.7-.36,2.82,2.82,0,0,1,.83-.12,3.07,3.07,0,0,1,1.23.24,2.88,2.88,0,0,1,.94.61l-.68.83a3.44,3.44,0,0,0-.71-.46,1.71,1.71,0,0,0-.75-.17,1,1,0,0,0-.59.17.63.63,0,0,0-.26.56.6.6,0,0,0,.31.56,4.27,4.27,0,0,0,.76.31l.65.24a2.46,2.46,0,0,1,.6.32,1.61,1.61,0,0,1,.43.5,1.55,1.55,0,0,1,.17.76,1.71,1.71,0,0,1-.63,1.43A2.59,2.59,0,0,1,1066.55,1831.3Z" transform="translate(-724.94 -1372.28)" style="fill:#67c0bf"/><path d="M1074.68,1831.3a2.41,2.41,0,0,1-1.9-.8,3.52,3.52,0,0,1-.7-2.41,4.08,4.08,0,0,1,.26-1.55,2.68,2.68,0,0,1,.68-1,2.38,2.38,0,0,1,.9-.51,3.3,3.3,0,0,1,1-.15,4.06,4.06,0,0,1,.78.09,1.91,1.91,0,0,1,.86.39,2.5,2.5,0,0,1,.69.92,3.86,3.86,0,0,1,.28,1.62,4.76,4.76,0,0,1-.21,1.5,3.1,3.1,0,0,1-.6,1.06,2.36,2.36,0,0,1-.89.61A2.92,2.92,0,0,1,1074.68,1831.3Zm.1-1.06a1,1,0,0,0,1-.59,3.34,3.34,0,0,0,.3-1.52,3.86,3.86,0,0,0-.27-1.59,1,1,0,0,0-1-.58,1,1,0,0,0-1,.55,2.94,2.94,0,0,0-.31,1.41,7.73,7.73,0,0,0,0,.84,2.36,2.36,0,0,0,.17.74,1.32,1.32,0,0,0,.38.54A1,1,0,0,0,1074.78,1830.24Z" transform="translate(-724.94 -1372.28)" style="fill:#67c0bf"/><path d="M1080.76,1831.3a2.37,2.37,0,0,1-1.16-.26,1.87,1.87,0,0,1-.73-.66,2.86,2.86,0,0,1-.37-1,5.62,5.62,0,0,1-.11-1.1,5.1,5.1,0,0,1,.19-1.4,3.21,3.21,0,0,1,.56-1.09,2.48,2.48,0,0,1,.91-.69,2.88,2.88,0,0,1,1.25-.25,3.77,3.77,0,0,1,.51,0l.42.1v-2.26h1.42v7.15l.11,1.19h-1.23l-.09-.65h0a1.84,1.84,0,0,1-.71.62A2,2,0,0,1,1080.76,1831.3Zm.28-1.06a1.22,1.22,0,0,0,.88-.32,1,1,0,0,0,.31-.67v-3.11a1.51,1.51,0,0,0-.38-.14,2.09,2.09,0,0,0-.52,0,1.31,1.31,0,0,0-.71.17,1.44,1.44,0,0,0-.48.5,2.27,2.27,0,0,0-.25.72,4,4,0,0,0-.08.86,6.53,6.53,0,0,0,0,.78,2,2,0,0,0,.2.65,1.25,1.25,0,0,0,.38.44A1,1,0,0,0,1081,1830.24Z" transform="translate(-724.94 -1372.28)" style="fill:#67c0bf"/><path d="M1087.51,1831.3a2.41,2.41,0,0,1-1.9-.8,3.52,3.52,0,0,1-.7-2.41,4.08,4.08,0,0,1,.26-1.55,2.78,2.78,0,0,1,.67-1,2.5,2.5,0,0,1,.91-.51,3.3,3.3,0,0,1,1-.15,4.06,4.06,0,0,1,.78.09,1.91,1.91,0,0,1,.86.39,2.5,2.5,0,0,1,.69.92,3.86,3.86,0,0,1,.28,1.62,4.48,4.48,0,0,1-.22,1.5,2.93,2.93,0,0,1-.59,1.06,2.36,2.36,0,0,1-.89.61A3,3,0,0,1,1087.51,1831.3Zm.1-1.06a1,1,0,0,0,1-.59,3.34,3.34,0,0,0,.3-1.52,3.86,3.86,0,0,0-.27-1.59,1,1,0,0,0-1-.58,1,1,0,0,0-1,.55,2.83,2.83,0,0,0-.31,1.41,7.73,7.73,0,0,0,.05.84,2.36,2.36,0,0,0,.17.74,1.32,1.32,0,0,0,.38.54A1,1,0,0,0,1087.61,1830.24Z" transform="translate(-724.94 -1372.28)" style="fill:#67c0bf"/><path d="M1091.53,1826.12l-.11-1h1.2l.13.76a2,2,0,0,1,.78-.69,2.21,2.21,0,0,1,1.06-.25,1.87,1.87,0,0,1,1.41.52,2.19,2.19,0,0,1,.5,1.57v4.13h-1.43v-3.82a2.23,2.23,0,0,0-.16-.92.72.72,0,0,0-.74-.38,1.14,1.14,0,0,0-.88.38,1.16,1.16,0,0,0-.34.83v3.91h-1.42Z" transform="translate(-724.94 -1372.28)" style="fill:#67c0bf"/><path d="M1099.85,1831.3a2.52,2.52,0,0,1-1-.17,1.27,1.27,0,0,1-.56-.45,1.69,1.69,0,0,1-.24-.65,6.19,6.19,0,0,1,0-.76v-6.49h1.43v2.3H1101v1.11h-1.62v3.06a1,1,0,0,0,.22.75.82.82,0,0,0,.59.21,1,1,0,0,0,.44-.09,1.79,1.79,0,0,0,.34-.17l.36.93a2,2,0,0,1-.68.3A3,3,0,0,1,1099.85,1831.3Z" transform="translate(-724.94 -1372.28)" style="fill:#67c0bf"/><path d="M1104.32,1831.3a2.41,2.41,0,0,1-1.9-.8,3.52,3.52,0,0,1-.7-2.41,4.08,4.08,0,0,1,.26-1.55,2.68,2.68,0,0,1,.68-1,2.38,2.38,0,0,1,.9-.51,3.3,3.3,0,0,1,1-.15,4.06,4.06,0,0,1,.78.09,1.91,1.91,0,0,1,.86.39,2.5,2.5,0,0,1,.69.92,3.86,3.86,0,0,1,.28,1.62,4.76,4.76,0,0,1-.21,1.5,3.1,3.1,0,0,1-.6,1.06,2.36,2.36,0,0,1-.89.61A2.92,2.92,0,0,1,1104.32,1831.3Zm.1-1.06a1,1,0,0,0,.95-.59,3.34,3.34,0,0,0,.3-1.52,3.86,3.86,0,0,0-.27-1.59,1,1,0,0,0-1-.58,1,1,0,0,0-1,.55,2.94,2.94,0,0,0-.31,1.41,7.73,7.73,0,0,0,0,.84,2.36,2.36,0,0,0,.17.74,1.32,1.32,0,0,0,.38.54A1,1,0,0,0,1104.42,1830.24Z" transform="translate(-724.94 -1372.28)" style="fill:#67c0bf"/><path d="M1110,1831.3a2.09,2.09,0,0,1-1-.18,1.22,1.22,0,0,1-.52-.48,1.86,1.86,0,0,1-.21-.69,6.74,6.74,0,0,1,0-.79v-6.38h1.44v6.36a1.73,1.73,0,0,0,.14.8.55.55,0,0,0,.51.23,1.63,1.63,0,0,0,.36-.05l.38-.14.31,1a1.9,1.9,0,0,1-.64.26A3.63,3.63,0,0,1,1110,1831.3Z" transform="translate(-724.94 -1372.28)" style="fill:#67c0bf"/><path d="M1114.36,1831.3a2.43,2.43,0,0,1-1.91-.8,3.57,3.57,0,0,1-.7-2.41,3.88,3.88,0,0,1,.27-1.55,2.66,2.66,0,0,1,.67-1,2.38,2.38,0,0,1,.9-.51,3.36,3.36,0,0,1,1-.15,4.06,4.06,0,0,1,.78.09,1.91,1.91,0,0,1,.86.39,2.5,2.5,0,0,1,.69.92,3.86,3.86,0,0,1,.28,1.62,4.76,4.76,0,0,1-.21,1.5,2.94,2.94,0,0,1-.6,1.06,2.36,2.36,0,0,1-.89.61A2.87,2.87,0,0,1,1114.36,1831.3Zm.09-1.06a1,1,0,0,0,1-.59,3.34,3.34,0,0,0,.3-1.52,3.86,3.86,0,0,0-.27-1.59,1,1,0,0,0-1-.58,1,1,0,0,0-1,.55,3,3,0,0,0-.3,1.41,7.75,7.75,0,0,0,0,.84,2.68,2.68,0,0,0,.17.74,1.43,1.43,0,0,0,.38.54A1,1,0,0,0,1114.45,1830.24Zm-.78-6.28,1.41-2.3a3,3,0,0,1,.57.22.53.53,0,0,1,.3.49.63.63,0,0,1-.08.27,2,2,0,0,1-.24.32c-.19.19-.42.41-.7.66l-.81.72Z" transform="translate(-724.94 -1372.28)" style="fill:#67c0bf"/><path d="M1120.67,1834.29a2.27,2.27,0,0,1-1.51-.44,1.45,1.45,0,0,1-.51-1.17,1.86,1.86,0,0,1,.43-1.23,4.61,4.61,0,0,1,1-.9,2.64,2.64,0,0,1-.75-.21,1.93,1.93,0,0,1-.65-.46,2.41,2.41,0,0,1-.45-.79,3.15,3.15,0,0,1-.18-1.13,3.73,3.73,0,0,1,.23-1.34,2.63,2.63,0,0,1,.61-1,2.59,2.59,0,0,1,.93-.57,3.59,3.59,0,0,1,1.2-.19,8.66,8.66,0,0,1,1.16.1,5.54,5.54,0,0,1,1.17.32v5.09c0,.2,0,.45,0,.74a5.11,5.11,0,0,1-.07.71,3,3,0,0,1-.8,1.78A2.44,2.44,0,0,1,1120.67,1834.29Zm.11-4.49a1.17,1.17,0,0,0,.81-.31,1.12,1.12,0,0,0,.34-.87v-2.53a1.8,1.8,0,0,0-.43-.11,2.76,2.76,0,0,0-.51,0,1.37,1.37,0,0,0-1,.48,2.08,2.08,0,0,0-.45,1.48,5.12,5.12,0,0,0,0,.67,1.72,1.72,0,0,0,.17.61,1.07,1.07,0,0,0,.39.45A1.18,1.18,0,0,0,1120.78,1829.8Zm0,3.43a.92.92,0,0,0,.93-.52,3,3,0,0,0,.25-1.32v-1.05a6.11,6.11,0,0,0-1.48,1,1.52,1.52,0,0,0-.54,1.12.7.7,0,0,0,.24.6A1,1,0,0,0,1120.76,1833.23Z" transform="translate(-724.94 -1372.28)" style="fill:#67c0bf"/><path d="M1125.5,1824.15a.81.81,0,0,1-.59-.23.79.79,0,0,1-.22-.58.78.78,0,0,1,.22-.56.81.81,0,0,1,.59-.23.78.78,0,0,1,.6.23.73.73,0,0,1,.23.56.79.79,0,0,1-.23.57A.81.81,0,0,1,1125.5,1824.15Zm-.7.93h1.42v6h-1.42Z" transform="translate(-724.94 -1372.28)" style="fill:#67c0bf"/><path d="M1127.32,1827.21h3.14v1.11h-3.14Z" transform="translate(-724.94 -1372.28)" style="fill:#67c0bf"/><path d="M1020.39,1845.7a2.6,2.6,0,0,1-2-.83,3.4,3.4,0,0,1-.73-2.34,3.8,3.8,0,0,1,.26-1.52,2.75,2.75,0,0,1,.65-1,2.25,2.25,0,0,1,.89-.55,3,3,0,0,1,1-.17,3.11,3.11,0,0,1,1.18.24,2.14,2.14,0,0,1,1,.9l-.9.75a2.26,2.26,0,0,0-.57-.55,1.29,1.29,0,0,0-.69-.2,1.24,1.24,0,0,0-1,.5,2.53,2.53,0,0,0-.38,1.53,2.81,2.81,0,0,0,.36,1.51,1.26,1.26,0,0,0,1.16.58,2,2,0,0,0,.68-.12,2.94,2.94,0,0,0,.7-.39l.54,1a2.79,2.79,0,0,1-.89.49A3.51,3.51,0,0,1,1020.39,1845.7Z" transform="translate(-724.94 -1372.28)" style="fill:#67c0bf"/><path d="M1025.58,1845.7a2.46,2.46,0,0,1-1.91-.79,3.62,3.62,0,0,1-.7-2.42,3.88,3.88,0,0,1,.27-1.55,2.54,2.54,0,0,1,.67-1,2.38,2.38,0,0,1,.9-.51,3.36,3.36,0,0,1,1-.15,4.06,4.06,0,0,1,.78.09,1.91,1.91,0,0,1,.86.39,2.5,2.5,0,0,1,.69.92,3.88,3.88,0,0,1,.28,1.63,4.85,4.85,0,0,1-.21,1.5,3,3,0,0,1-.6,1.05,2.36,2.36,0,0,1-.89.61A2.91,2.91,0,0,1,1025.58,1845.7Zm.09-1.06a1,1,0,0,0,.95-.59,3.34,3.34,0,0,0,.3-1.52,3.86,3.86,0,0,0-.27-1.59,1,1,0,0,0-1-.58,1,1,0,0,0-1,.55,3,3,0,0,0-.3,1.42,7.69,7.69,0,0,0,0,.83,2.36,2.36,0,0,0,.17.74,1.43,1.43,0,0,0,.38.54A1,1,0,0,0,1025.67,1844.64Z" transform="translate(-724.94 -1372.28)" style="fill:#67c0bf"/><path d="M1031.25,1845.7a3.84,3.84,0,0,1-1.36-.22,2.65,2.65,0,0,1-.82-.41l.41-1a5.62,5.62,0,0,0,.77.37,2.43,2.43,0,0,0,1,.2,1,1,0,0,0,.63-.19.68.68,0,0,0,.26-.58.63.63,0,0,0-.29-.58,3.36,3.36,0,0,0-.73-.29l-.65-.22a2.43,2.43,0,0,1-.6-.31,1.5,1.5,0,0,1-.43-.5,1.58,1.58,0,0,1-.16-.76,1.72,1.72,0,0,1,.18-.83,1.77,1.77,0,0,1,.48-.6,2,2,0,0,1,.69-.36,2.87,2.87,0,0,1,.83-.12,3.07,3.07,0,0,1,2.17.85l-.68.83a3.44,3.44,0,0,0-.71-.46,1.69,1.69,0,0,0-.74-.17,1,1,0,0,0-.6.17.63.63,0,0,0-.26.56.61.61,0,0,0,.32.56,4.14,4.14,0,0,0,.75.31c.22.08.44.15.66.24a2.59,2.59,0,0,1,.59.32,1.61,1.61,0,0,1,.43.5,1.55,1.55,0,0,1,.17.76,1.71,1.71,0,0,1-.63,1.43A2.59,2.59,0,0,1,1031.25,1845.7Z" transform="translate(-724.94 -1372.28)" style="fill:#67c0bf"/><path d="M1039.58,1845.7a3.2,3.2,0,0,1-1.27-.23,2.17,2.17,0,0,1-.87-.64,2.7,2.7,0,0,1-.5-1,4.75,4.75,0,0,1-.16-1.23,4.43,4.43,0,0,1,.19-1.27,3.35,3.35,0,0,1,.56-1.06,2.64,2.64,0,0,1,.92-.73,2.84,2.84,0,0,1,1.26-.27,2.09,2.09,0,0,1,1.39.44,1.5,1.5,0,0,1,.52,1.23,1.7,1.7,0,0,1-.35,1.11,2.31,2.31,0,0,1-.86.65,3.59,3.59,0,0,1-1.1.31,8.6,8.6,0,0,1-1.08.08,2.62,2.62,0,0,0,.12.54,1.87,1.87,0,0,0,.27.48,1.28,1.28,0,0,0,.45.34,1.69,1.69,0,0,0,.66.13,2.15,2.15,0,0,0,.92-.19,4.92,4.92,0,0,0,.6-.34l.44,1-.25.17a2.36,2.36,0,0,1-.45.22,4,4,0,0,1-.63.19A3.21,3.21,0,0,1,1039.58,1845.7Zm-1.39-3.61.61,0a2.72,2.72,0,0,0,.71-.15,1.6,1.6,0,0,0,.59-.32.72.72,0,0,0,.25-.56.69.69,0,0,0-.2-.52.71.71,0,0,0-.52-.19,1.18,1.18,0,0,0-.63.16,1.53,1.53,0,0,0-.44.4,1.71,1.71,0,0,0-.27.56A2.44,2.44,0,0,0,1038.19,1842.09Z" transform="translate(-724.94 -1372.28)" style="fill:#67c0bf"/><path d="M1044.43,1845.7a3.86,3.86,0,0,1-1.37-.22,2.78,2.78,0,0,1-.82-.41l.41-1a5.81,5.81,0,0,0,.78.37,2.36,2.36,0,0,0,1,.2,1,1,0,0,0,.62-.19.67.67,0,0,0,.27-.58.62.62,0,0,0-.3-.58,3.07,3.07,0,0,0-.72-.29l-.66-.22a2.37,2.37,0,0,1-.59-.31,1.4,1.4,0,0,1-.43-.5,1.58,1.58,0,0,1-.17-.76,1.84,1.84,0,0,1,.18-.83,1.77,1.77,0,0,1,.48-.6,2,2,0,0,1,.7-.36,2.81,2.81,0,0,1,.82-.12,3.15,3.15,0,0,1,1.24.24,3.06,3.06,0,0,1,.94.61l-.69.83a3.19,3.19,0,0,0-.71-.46,1.63,1.63,0,0,0-.74-.17,1,1,0,0,0-.59.17.61.61,0,0,0-.26.56.6.6,0,0,0,.31.56,4.27,4.27,0,0,0,.76.31l.65.24a2.23,2.23,0,0,1,.59.32,1.64,1.64,0,0,1,.44.5,1.56,1.56,0,0,1,.16.76,1.71,1.71,0,0,1-.63,1.43A2.56,2.56,0,0,1,1044.43,1845.7Z" transform="translate(-724.94 -1372.28)" style="fill:#67c0bf"/><path d="M1047.76,1839.7a8.31,8.31,0,0,1,1.32-.3,6.76,6.76,0,0,1,1.09-.1,2.65,2.65,0,0,1,2.12.8,3.49,3.49,0,0,1,.69,2.35,3.78,3.78,0,0,1-.68,2.41,2.28,2.28,0,0,1-1.86.84,2.35,2.35,0,0,1-.69-.1,1.93,1.93,0,0,1-.56-.24V1848h-1.43Zm2.53,4.8a1,1,0,0,0,.92-.49,2.61,2.61,0,0,0,.33-1.46,3.19,3.19,0,0,0-.31-1.47,1.17,1.17,0,0,0-1.14-.6,2.42,2.42,0,0,0-.47,0l-.43.1v3.58a1.36,1.36,0,0,0,.5.23A3.26,3.26,0,0,0,1050.29,1844.5Z" transform="translate(-724.94 -1372.28)" style="fill:#67c0bf"/><path d="M1056.69,1845.7a3.2,3.2,0,0,1-1.27-.23,2.24,2.24,0,0,1-.87-.64,2.54,2.54,0,0,1-.49-1,4.35,4.35,0,0,1-.17-1.23,4.12,4.12,0,0,1,.2-1.27,3.14,3.14,0,0,1,.55-1.06,2.64,2.64,0,0,1,.92-.73,2.84,2.84,0,0,1,1.26-.27,2.07,2.07,0,0,1,1.39.44,1.5,1.5,0,0,1,.52,1.23,1.7,1.7,0,0,1-.35,1.11,2.31,2.31,0,0,1-.86.65,3.6,3.6,0,0,1-1.09.31,8.87,8.87,0,0,1-1.08.08,1.75,1.75,0,0,0,.12.54,1.42,1.42,0,0,0,.27.48,1.12,1.12,0,0,0,.45.34,1.62,1.62,0,0,0,.66.13,2.14,2.14,0,0,0,.91-.19,4.92,4.92,0,0,0,.6-.34l.44,1-.25.17a2.36,2.36,0,0,1-.45.22,4,4,0,0,1-.63.19A3.21,3.21,0,0,1,1056.69,1845.7Zm-1.39-3.61.61,0a2.72,2.72,0,0,0,.71-.15,1.6,1.6,0,0,0,.59-.32.76.76,0,0,0,0-1.08.71.71,0,0,0-.52-.19,1.18,1.18,0,0,0-.63.16,1.53,1.53,0,0,0-.44.4,1.71,1.71,0,0,0-.27.56A2.93,2.93,0,0,0,1055.3,1842.09Z" transform="translate(-724.94 -1372.28)" style="fill:#67c0bf"/><path d="M1062.29,1845.7a2.6,2.6,0,0,1-2-.83,3.4,3.4,0,0,1-.73-2.34,4,4,0,0,1,.26-1.52,2.89,2.89,0,0,1,.65-1,2.32,2.32,0,0,1,.89-.55,3.05,3.05,0,0,1,1-.17,3.11,3.11,0,0,1,1.18.24,2.14,2.14,0,0,1,1,.9l-.9.75a2.26,2.26,0,0,0-.57-.55,1.24,1.24,0,0,0-.69-.2,1.22,1.22,0,0,0-1,.5,2.46,2.46,0,0,0-.39,1.53,2.81,2.81,0,0,0,.36,1.51,1.27,1.27,0,0,0,1.16.58,2,2,0,0,0,.68-.12,2.94,2.94,0,0,0,.7-.39l.54,1a2.79,2.79,0,0,1-.89.49A3.51,3.51,0,0,1,1062.29,1845.7Z" transform="translate(-724.94 -1372.28)" style="fill:#67c0bf"/><path d="M1066.06,1838.55a.8.8,0,1,1,0-1.6.81.81,0,0,1,.6.23.81.81,0,0,1,0,1.13A.81.81,0,0,1,1066.06,1838.55Zm-.71.93h1.43v6h-1.43Z" transform="translate(-724.94 -1372.28)" style="fill:#67c0bf"/><path d="M1070.32,1845.7a2.42,2.42,0,0,1-1.13-.24,2,2,0,0,1-.72-.64,2.72,2.72,0,0,1-.37-.94,5.13,5.13,0,0,1-.12-1.12,3.78,3.78,0,0,1,.79-2.52,2.87,2.87,0,0,1,2.32-.94,6.66,6.66,0,0,1,.9.09,6.18,6.18,0,0,1,1.24.33v4.65l.12,1.15h-1.24l-.08-.64h0a2.06,2.06,0,0,1-.65.59A2,2,0,0,1,1070.32,1845.7Zm.31-1.06a1.2,1.2,0,0,0,.89-.32,1,1,0,0,0,.3-.71v-3.11a1.61,1.61,0,0,0-.38-.11,2.33,2.33,0,0,0-.53-.06,1.24,1.24,0,0,0-.71.2,1.31,1.31,0,0,0-.48.51,2.54,2.54,0,0,0-.26.75,5.45,5.45,0,0,0-.07.92,4.21,4.21,0,0,0,0,.72,2,2,0,0,0,.2.62,1.13,1.13,0,0,0,.38.43A1.07,1.07,0,0,0,1070.63,1844.64Z" transform="translate(-724.94 -1372.28)" style="fill:#67c0bf"/><path d="M1076.45,1845.7a2,2,0,0,1-.94-.18,1.16,1.16,0,0,1-.52-.48,1.86,1.86,0,0,1-.21-.69,6.74,6.74,0,0,1,0-.79v-6.38h1.44v6.36a1.61,1.61,0,0,0,.14.8.55.55,0,0,0,.51.23,1.63,1.63,0,0,0,.36,0l.38-.14.31,1a2,2,0,0,1-.65.26A3,3,0,0,1,1076.45,1845.7Z" transform="translate(-724.94 -1372.28)" style="fill:#67c0bf"/><path d="M1079.3,1838.55a.81.81,0,0,1-.6-.23.85.85,0,0,1,0-1.14.9.9,0,0,1,1.2,0,.77.77,0,0,1,.23.56.75.75,0,0,1-.24.57A.78.78,0,0,1,1079.3,1838.55Zm-.71.93H1080v6h-1.43Z" transform="translate(-724.94 -1372.28)" style="fill:#67c0bf"/><path d="M1082.93,1848.7a2.11,2.11,0,0,1-1.57-.52,1.83,1.83,0,0,1-.53-1.37,2.48,2.48,0,0,1,.48-1.47,4,4,0,0,1,1.37-1.15,5.14,5.14,0,0,0-.58-.27l-.57-.25v-.85l2.18-2.22H1081v-1.12h4.5v.9l-2.59,2.64.68.35a3.81,3.81,0,0,1,1.5,1.16,2.62,2.62,0,0,1,.45,1.54,2.75,2.75,0,0,1-.21,1.09,2.26,2.26,0,0,1-.56.82,2.37,2.37,0,0,1-.82.53A2.63,2.63,0,0,1,1082.93,1848.7Zm.09-1.07a1,1,0,0,0,.88-.45,1.85,1.85,0,0,0,.29-1.06,1.67,1.67,0,0,0-.18-.81,1.6,1.6,0,0,0-.51-.56,2.66,2.66,0,0,0-1,.88,1.79,1.79,0,0,0-.34,1,1.26,1.26,0,0,0,.2.71A.8.8,0,0,0,1083,1847.63Z" transform="translate(-724.94 -1372.28)" style="fill:#67c0bf"/><path d="M1088.29,1845.7a2.39,2.39,0,0,1-1.13-.24,1.87,1.87,0,0,1-.72-.64,2.73,2.73,0,0,1-.38-.94,5.13,5.13,0,0,1-.11-1.12,3.83,3.83,0,0,1,.78-2.52,2.88,2.88,0,0,1,2.32-.94,6.66,6.66,0,0,1,.9.09,6,6,0,0,1,1.24.33v4.65l.12,1.15h-1.24l-.08-.64h0a2,2,0,0,1-.65.59A1.92,1.92,0,0,1,1088.29,1845.7Zm.31-1.06a1.17,1.17,0,0,0,.88-.32,1,1,0,0,0,.31-.71v-3.11a1.72,1.72,0,0,0-.39-.11,2.26,2.26,0,0,0-.53-.06,1.26,1.26,0,0,0-.71.2,1.29,1.29,0,0,0-.47.51,2.29,2.29,0,0,0-.26.75,5.43,5.43,0,0,0-.08.92,5.55,5.55,0,0,0,.05.72,2.26,2.26,0,0,0,.2.62,1.24,1.24,0,0,0,.39.43A1,1,0,0,0,1088.6,1844.64Z" transform="translate(-724.94 -1372.28)" style="fill:#67c0bf"/><path d="M1094.78,1845.7a2.49,2.49,0,0,1-1.16-.25,2,2,0,0,1-.73-.67,2.86,2.86,0,0,1-.37-1,5.62,5.62,0,0,1-.11-1.1,4.73,4.73,0,0,1,.2-1.4,3.11,3.11,0,0,1,.55-1.09,2.48,2.48,0,0,1,.91-.69,2.91,2.91,0,0,1,1.25-.25,3.77,3.77,0,0,1,.51,0l.42.11v-2.27h1.42v7.15l.11,1.19h-1.23l-.09-.65h0a1.77,1.77,0,0,1-.71.62A2,2,0,0,1,1094.78,1845.7Zm.29-1.06a1.21,1.21,0,0,0,.87-.32,1,1,0,0,0,.31-.67v-3.11a1.51,1.51,0,0,0-.38-.14,2,2,0,0,0-.52-.05,1.34,1.34,0,0,0-.71.18,1.3,1.3,0,0,0-.47.49,2.28,2.28,0,0,0-.26.72,4.74,4.74,0,0,0-.08.86,6.53,6.53,0,0,0,.05.78,2.26,2.26,0,0,0,.2.65,1.28,1.28,0,0,0,.39.44A1,1,0,0,0,1095.07,1844.64Z" transform="translate(-724.94 -1372.28)" style="fill:#67c0bf"/><path d="M1101.53,1845.7a2.44,2.44,0,0,1-1.9-.79,3.57,3.57,0,0,1-.7-2.42,4.08,4.08,0,0,1,.26-1.55,2.68,2.68,0,0,1,.68-1,2.38,2.38,0,0,1,.9-.51,3.3,3.3,0,0,1,1-.15,4.06,4.06,0,0,1,.78.09,1.91,1.91,0,0,1,.86.39,2.5,2.5,0,0,1,.69.92,3.88,3.88,0,0,1,.28,1.63,4.85,4.85,0,0,1-.21,1.5,3.14,3.14,0,0,1-.6,1.05,2.36,2.36,0,0,1-.89.61A2.92,2.92,0,0,1,1101.53,1845.7Zm.1-1.06a1,1,0,0,0,.95-.59,3.34,3.34,0,0,0,.3-1.52,3.86,3.86,0,0,0-.27-1.59,1,1,0,0,0-1-.58,1,1,0,0,0-1,.55,3,3,0,0,0-.31,1.42,7.7,7.7,0,0,0,0,.83,2.36,2.36,0,0,0,.17.74,1.32,1.32,0,0,0,.38.54A1,1,0,0,0,1101.63,1844.64Z" transform="translate(-724.94 -1372.28)" style="fill:#67c0bf"/><path d="M1107.21,1845.7a3.8,3.8,0,0,1-1.36-.22,2.65,2.65,0,0,1-.82-.41l.4-1a5.81,5.81,0,0,0,.78.37,2.36,2.36,0,0,0,1,.2,1,1,0,0,0,.63-.19.68.68,0,0,0,.26-.58.63.63,0,0,0-.29-.58,3.36,3.36,0,0,0-.73-.29l-.65-.22a2.43,2.43,0,0,1-.6-.31,1.5,1.5,0,0,1-.43-.5,1.58,1.58,0,0,1-.17-.76,1.84,1.84,0,0,1,.18-.83,1.77,1.77,0,0,1,.48-.6,2.11,2.11,0,0,1,.7-.36,2.82,2.82,0,0,1,.83-.12,3.12,3.12,0,0,1,2.17.85l-.68.83a3.44,3.44,0,0,0-.71-.46,1.71,1.71,0,0,0-.75-.17,1,1,0,0,0-.59.17.63.63,0,0,0-.26.56.62.62,0,0,0,.31.56,4.27,4.27,0,0,0,.76.31l.65.24a2.46,2.46,0,0,1,.6.32,1.61,1.61,0,0,1,.43.5,1.55,1.55,0,0,1,.17.76,1.71,1.71,0,0,1-.63,1.43A2.59,2.59,0,0,1,1107.21,1845.7Z" transform="translate(-724.94 -1372.28)" style="fill:#67c0bf"/><path d="M1113,1839.7a8.2,8.2,0,0,1,1.31-.3,7,7,0,0,1,1.1-.1,2.67,2.67,0,0,1,2.12.8,3.49,3.49,0,0,1,.69,2.35,3.72,3.72,0,0,1-.69,2.41,2.45,2.45,0,0,1-2.54.74,1.93,1.93,0,0,1-.56-.24V1848H1113Zm2.53,4.8a1,1,0,0,0,.92-.49,2.61,2.61,0,0,0,.33-1.46,3.32,3.32,0,0,0-.31-1.47,1.17,1.17,0,0,0-1.14-.6,2.59,2.59,0,0,0-.48,0,3.72,3.72,0,0,0-.42.1v3.58a1.22,1.22,0,0,0,.5.23A3.26,3.26,0,0,0,1115.55,1844.5Z" transform="translate(-724.94 -1372.28)" style="fill:#67c0bf"/><path d="M1121.49,1845.7a2.42,2.42,0,0,1-1.13-.24,2,2,0,0,1-.72-.64,2.94,2.94,0,0,1-.38-.94,5.83,5.83,0,0,1-.11-1.12,3.78,3.78,0,0,1,.79-2.52,2.86,2.86,0,0,1,2.32-.94,6.66,6.66,0,0,1,.9.09,5.93,5.93,0,0,1,1.23.33v4.65l.12,1.15h-1.23l-.09-.64h0a2.06,2.06,0,0,1-.65.59A2,2,0,0,1,1121.49,1845.7Zm.31-1.06a1.16,1.16,0,0,0,.88-.32,1,1,0,0,0,.31-.71v-3.11a1.77,1.77,0,0,0-.38-.11,2.33,2.33,0,0,0-.53-.06,1.29,1.29,0,0,0-.72.2,1.37,1.37,0,0,0-.47.51,2.29,2.29,0,0,0-.26.75,5.43,5.43,0,0,0-.08.92,4.2,4.2,0,0,0,.06.72,1.74,1.74,0,0,0,.2.62,1.13,1.13,0,0,0,.38.43A1,1,0,0,0,1121.8,1844.64Z" transform="translate(-724.94 -1372.28)" style="fill:#67c0bf"/><path d="M1125.93,1840.44l-.11-1H1127l.14.87a1.59,1.59,0,0,1,.6-.78,1.52,1.52,0,0,1,.85-.27,2.33,2.33,0,0,1,.53.06,1.33,1.33,0,0,1,.43.17l-.25,1.19a2.08,2.08,0,0,0-.4-.15,1.41,1.41,0,0,0-.45-.07,1,1,0,0,0-.78.35,1.33,1.33,0,0,0-.31.86v3.81h-1.43Z" transform="translate(-724.94 -1372.28)" style="fill:#67c0bf"/><path d="M1132.13,1845.7a2.38,2.38,0,0,1-1.12-.24,1.87,1.87,0,0,1-.72-.64,2.55,2.55,0,0,1-.38-.94,5.13,5.13,0,0,1-.12-1.12,3.84,3.84,0,0,1,.79-2.52,2.87,2.87,0,0,1,2.32-.94,6.66,6.66,0,0,1,.9.09,6.18,6.18,0,0,1,1.24.33v4.65l.12,1.15h-1.24l-.08-.64h0a2.06,2.06,0,0,1-.65.59A2,2,0,0,1,1132.13,1845.7Zm.32-1.06a1.19,1.19,0,0,0,.88-.32,1,1,0,0,0,.3-.71v-3.11a1.61,1.61,0,0,0-.38-.11,2.26,2.26,0,0,0-.53-.06,1.24,1.24,0,0,0-.71.2,1.31,1.31,0,0,0-.48.51,2.28,2.28,0,0,0-.25.75,4.57,4.57,0,0,0-.08.92,5.55,5.55,0,0,0,0,.72,2,2,0,0,0,.2.62,1.22,1.22,0,0,0,.38.43A1.08,1.08,0,0,0,1132.45,1844.64Z" transform="translate(-724.94 -1372.28)" style="fill:#67c0bf"/><path d="M1057,1860.1a2.6,2.6,0,0,1-2-.83,3.4,3.4,0,0,1-.73-2.34,4,4,0,0,1,.26-1.52,2.89,2.89,0,0,1,.65-1,2.32,2.32,0,0,1,.89-.55,3.05,3.05,0,0,1,1-.17,3.3,3.3,0,0,1,1.18.23,2.22,2.22,0,0,1,1,.91l-.9.74a2.39,2.39,0,0,0-.57-.54,1.24,1.24,0,0,0-.69-.2,1.22,1.22,0,0,0-1,.5,2.46,2.46,0,0,0-.39,1.53,2.81,2.81,0,0,0,.36,1.51,1.29,1.29,0,0,0,1.16.58,2,2,0,0,0,.68-.12,2.94,2.94,0,0,0,.7-.39l.54,1a2.79,2.79,0,0,1-.89.49A3.51,3.51,0,0,1,1057,1860.1Z" transform="translate(-724.94 -1372.28)" style="fill:#67c0bf"/><path d="M1060.12,1854.84l-.11-1h1.18l.14.87a1.59,1.59,0,0,1,.6-.78,1.56,1.56,0,0,1,.86-.27,2.31,2.31,0,0,1,.52.06,1.5,1.5,0,0,1,.44.17l-.26,1.19a1.86,1.86,0,0,0-.4-.15,1.41,1.41,0,0,0-.45-.07,1,1,0,0,0-.78.35,1.33,1.33,0,0,0-.31.86v3.81h-1.43Z" transform="translate(-724.94 -1372.28)" style="fill:#67c0bf"/><path d="M1065.23,1853a.81.81,0,0,1-.59-.23.79.79,0,0,1-.22-.58.78.78,0,0,1,.22-.56.81.81,0,0,1,.59-.23.78.78,0,0,1,.6.23.73.73,0,0,1,.23.56.79.79,0,0,1-.23.57A.81.81,0,0,1,1065.23,1853Zm-.7.93H1066v6h-1.42Z" transform="translate(-724.94 -1372.28)" style="fill:#67c0bf"/><path d="M1069.49,1860.1a2.38,2.38,0,0,1-1.12-.24,1.82,1.82,0,0,1-.72-.65,2.5,2.5,0,0,1-.38-.93,5.13,5.13,0,0,1-.12-1.12,3.84,3.84,0,0,1,.79-2.52,2.84,2.84,0,0,1,2.32-.94,6.66,6.66,0,0,1,.9.09,6.18,6.18,0,0,1,1.24.33v4.64l.12,1.16h-1.24l-.08-.64h0a2.06,2.06,0,0,1-.65.59A2,2,0,0,1,1069.49,1860.1Zm.32-1.06a1.19,1.19,0,0,0,.88-.32,1,1,0,0,0,.3-.71v-3.11a1.48,1.48,0,0,0-.38-.11,2.26,2.26,0,0,0-.53-.06,1.32,1.32,0,0,0-.71.19,1.47,1.47,0,0,0-.48.51,2.43,2.43,0,0,0-.25.76,4.57,4.57,0,0,0-.08.92,5.55,5.55,0,0,0,0,.72,2,2,0,0,0,.2.62,1.22,1.22,0,0,0,.38.43A1.08,1.08,0,0,0,1069.81,1859Z" transform="translate(-724.94 -1372.28)" style="fill:#67c0bf"/><path d="M1073.93,1854.92l-.1-1h1.2l.12.76a2.07,2.07,0,0,1,.78-.69,2.21,2.21,0,0,1,1.06-.25,1.87,1.87,0,0,1,1.41.52,2.17,2.17,0,0,1,.5,1.57v4.13h-1.43v-3.82a2.23,2.23,0,0,0-.16-.92.72.72,0,0,0-.74-.38,1.14,1.14,0,0,0-.88.38,1.16,1.16,0,0,0-.34.82v3.92h-1.42Z" transform="translate(-724.94 -1372.28)" style="fill:#67c0bf"/><path d="M1080.09,1856.93a4,4,0,0,1,.26-1.52,2.89,2.89,0,0,1,.65-1,2.32,2.32,0,0,1,.89-.55,3.05,3.05,0,0,1,1-.17,3.3,3.3,0,0,1,1.18.23,2.22,2.22,0,0,1,1,.91l-.9.74a2.39,2.39,0,0,0-.57-.54,1.24,1.24,0,0,0-.69-.2,1.22,1.22,0,0,0-1,.5,2.46,2.46,0,0,0-.39,1.53,2.81,2.81,0,0,0,.36,1.51,1.29,1.29,0,0,0,1.16.58,2,2,0,0,0,.68-.12,2.94,2.94,0,0,0,.7-.39l.54,1a3.11,3.11,0,0,1-.85.48,3.46,3.46,0,0,1-1.15.21l-.16.61a1.33,1.33,0,0,1,.79.26.83.83,0,0,1,.3.69,1,1,0,0,1-.13.54,1.15,1.15,0,0,1-.33.36,1.53,1.53,0,0,1-.45.19,2.35,2.35,0,0,1-.51.06,2.88,2.88,0,0,1-.59-.06,1.8,1.8,0,0,1-.48-.16l.19-.64.35.1a2.47,2.47,0,0,0,.44,0,.81.81,0,0,0,.47-.11.38.38,0,0,0-.16-.67,2.83,2.83,0,0,0-.78-.08l.36-1.19a2.29,2.29,0,0,1-1.61-1A3.65,3.65,0,0,1,1080.09,1856.93Z" transform="translate(-724.94 -1372.28)" style="fill:#67c0bf"/><path d="M1087.85,1860.1a2.38,2.38,0,0,1-1.12-.24,1.82,1.82,0,0,1-.72-.65,2.5,2.5,0,0,1-.38-.93,5.13,5.13,0,0,1-.12-1.12,3.84,3.84,0,0,1,.79-2.52,2.84,2.84,0,0,1,2.32-.94,6.66,6.66,0,0,1,.9.09,6.18,6.18,0,0,1,1.24.33v4.64l.12,1.16h-1.24l-.08-.64h0a2.06,2.06,0,0,1-.65.59A2,2,0,0,1,1087.85,1860.1Zm.32-1.06a1.19,1.19,0,0,0,.88-.32,1,1,0,0,0,.3-.71v-3.11a1.48,1.48,0,0,0-.38-.11,2.26,2.26,0,0,0-.53-.06,1.32,1.32,0,0,0-.71.19,1.47,1.47,0,0,0-.48.51,2.43,2.43,0,0,0-.25.76,4.57,4.57,0,0,0-.08.92,5.55,5.55,0,0,0,0,.72,2,2,0,0,0,.2.62,1.22,1.22,0,0,0,.38.43A1.08,1.08,0,0,0,1088.17,1859Z" transform="translate(-724.94 -1372.28)" style="fill:#67c0bf"/><path d="M1094,1860.1a3.8,3.8,0,0,1-1.36-.22,2.65,2.65,0,0,1-.82-.41l.4-1a5.71,5.71,0,0,0,.78.38,2.54,2.54,0,0,0,1,.2,1,1,0,0,0,.63-.19.68.68,0,0,0,.26-.58.63.63,0,0,0-.29-.58,3.36,3.36,0,0,0-.73-.29l-.65-.22a2.43,2.43,0,0,1-.6-.31,1.5,1.5,0,0,1-.43-.5,1.58,1.58,0,0,1-.17-.76,1.84,1.84,0,0,1,.18-.83,1.77,1.77,0,0,1,.48-.6,2.11,2.11,0,0,1,.7-.36,2.82,2.82,0,0,1,.83-.12,3.07,3.07,0,0,1,1.23.24,2.88,2.88,0,0,1,.94.61l-.68.83a3.44,3.44,0,0,0-.71-.46,1.71,1.71,0,0,0-.75-.17,1,1,0,0,0-.59.17.63.63,0,0,0-.26.56.62.62,0,0,0,.31.56,4.27,4.27,0,0,0,.76.31c.22.07.43.15.65.24a2.46,2.46,0,0,1,.6.32,1.61,1.61,0,0,1,.43.5,1.55,1.55,0,0,1,.17.76,1.71,1.71,0,0,1-.63,1.43A2.59,2.59,0,0,1,1094,1860.1Z" transform="translate(-724.94 -1372.28)" style="fill:#67c0bf"/><path d="M1097.87,1860.1a.78.78,0,0,1-.85-.83.83.83,0,0,1,.22-.57.78.78,0,0,1,.6-.24.89.89,0,0,1,.63.22.78.78,0,0,1,.22.58.88.88,0,0,1-.21.6A.76.76,0,0,1,1097.87,1860.1Z" transform="translate(-724.94 -1372.28)" style="fill:#67c0bf"/><text transform="translate(338.96 520.14) scale(0.56 1)" style="font-size:40.41352844238281px;fill:#fbb03b;font-family:BreeGRK-Regular, Bree GRK">&gt;&gt;</text><text transform="translate(78.45 418.17) scale(0.98 1)" style="font-size:19.79046058654785px;fill:#fff;font-family:BreeGRK-Regular, Bree GRK">Clíni<tspan x="38.33" y="0" style="letter-spacing:-0.012993406128172071em">c</tspan><tspan x="47.28" y="0">a Ge</tspan><tspan x="83.77" y="0" style="letter-spacing:-0.023003890226919423em">r</tspan><tspan x="90.66" y="0">al</tspan></text><text transform="translate(86.35 437.84)" style="font-size:12px;fill:#67c0bf;font-family:BreeGRK-Regular, Bree GRK"><tspan style="letter-spacing:-0.027994791666666668em">C</tspan><tspan x="6.78" y="0">uidados ge</tspan><tspan x="61.64" y="0" style="letter-spacing:-0.022989908854166668em">r</tspan><tspan x="65.82" y="0">ais e </tspan><tspan x="-6.32" y="14.4">p</tspan><tspan x="0.08" y="14.4" style="letter-spacing:-0.019978841145833332em">r</tspan><tspan x="4.3" y="14.4">even</tspan><tspan x="28.34" y="14.4" style="letter-spacing:-0.012980143229166666em">ç</tspan><tspan x="33.77" y="14.4">ão da saúde </tspan><tspan x="28.49" y="28.8">bu</tspan><tspan x="41.47" y="28.8" style="letter-spacing:-0.012980143229166666em">c</tspan><tspan x="46.89" y="28.8">al.</tspan></text><text transform="translate(117.96 499.14) scale(0.56 1)" style="font-size:40.41352844238281px;fill:#fbb03b;font-family:BreeGRK-Regular, Bree GRK">&gt;&gt;</text><text transform="translate(46.45 224.17) scale(0.98 1)" style="font-size:19.79046058654785px;fill:#fff;font-family:BreeGRK-Regular, Bree GRK"><tspan style="letter-spacing:-0.014965168147622308em">P</tspan><tspan x="10.94" y="0" style="letter-spacing:-0.020020968197494708em">r</tspan><tspan x="17.89" y="0">ó</tspan><tspan x="28.3" y="0" style="letter-spacing:-0.014965168147622308em">t</tspan><tspan x="34.95" y="0">e</tspan><tspan x="44.31" y="0" style="letter-spacing:-0.002982922029424717em">s</tspan><tspan x="52.54" y="0" style="letter-spacing:0.00005055800049872401em">e</tspan></text><text transform="translate(23.51 249.84)" style="font-size:12px;fill:#67c0bf;font-family:BreeGRK-Regular, Bree GRK"><tspan style="letter-spacing:-0.019978841145833332em">R</tspan><tspan x="6.94" y="0">es</tspan><tspan x="17.64" y="0" style="letter-spacing:-0.0150146484375em">t</tspan><tspan x="21.67" y="0">au</tspan><tspan x="34.66" y="0" style="letter-spacing:-0.022989908854166668em">r</tspan><tspan x="38.83" y="0">a</tspan><tspan x="45.3" y="0" style="letter-spacing:-0.012980143229166666em">ç</tspan><tspan x="50.72" y="0">ão de den</tspan><tspan x="99.3" y="0" style="letter-spacing:-0.0150146484375em">t</tspan><tspan x="103.33" y="0">es </tspan><tspan x="-1.09" y="14.4">au</tspan><tspan x="11.9" y="14.4" style="letter-spacing:-0.0029703776041666665em">s</tspan><tspan x="16.89" y="14.4">en</tspan><tspan x="29.03" y="14.4" style="letter-spacing:-0.0150146484375em">t</tspan><tspan x="33.07" y="14.4">es </tspan><tspan x="46.24" y="14.4" style="letter-spacing:-0.017985026041666668em">c</tspan><tspan x="51.6" y="14.4">om p</tspan><tspan x="76.56" y="14.4" style="letter-spacing:-0.019978841145833332em">r</tspan><tspan x="80.78" y="14.4" style="letter-spacing:-0.000040690104166666664em">ó</tspan><tspan x="87.09" y="14.4" style="letter-spacing:-0.014973958333333334em">t</tspan><tspan x="91.12" y="14.4">e</tspan><tspan x="96.8" y="14.4" style="letter-spacing:-0.0030110677083333335em">s</tspan><tspan x="101.79" y="14.4">es.</tspan></text><text transform="translate(68.96 306.14) scale(0.56 1)" style="font-size:40.41352844238281px;fill:#fbb03b;font-family:BreeGRK-Regular, Bree GRK">&gt;&gt;</text><path d="M1187.44,1538.28" transform="translate(-724.94 -1372.28)" style="fill:none;stroke:#00265b;stroke-miterlimit:10;stroke-width:5px"/><path d="M1069.44,1618.28" transform="translate(-724.94 -1372.28)" style="fill:none;stroke:#00265b;stroke-miterlimit:10;stroke-width:5px"/><path d="M1030.44,1553.28" transform="translate(-724.94 -1372.28)" style="fill:none;stroke:#00265b;stroke-miterlimit:10;stroke-width:5px"/><path d="M1032.44,1603.28" transform="translate(-724.94 -1372.28)" style="fill:none;stroke:#00265b;stroke-miterlimit:10;stroke-width:5px"/><path d="M880.44,1636.28" transform="translate(-724.94 -1372.28)" style="fill:none;stroke:#00265b;stroke-miterlimit:10;stroke-width:5px"/><path d="M982.44,1648.28" transform="translate(-724.94 -1372.28)" style="fill:none;stroke:#00265b;stroke-miterlimit:10;stroke-width:5px"/><path d="M1058.44,1761.28" transform="translate(-724.94 -1372.28)" style="fill:none;stroke:#00265b;stroke-miterlimit:10;stroke-width:5px"/><path d="M1041.44,1691.28" transform="translate(-724.94 -1372.28)" style="fill:none;stroke:#00265b;stroke-miterlimit:10;stroke-width:5px"/><path d="M1036.64,1634.89a16.34,16.34,0,0,1,8.1-4.06,9,9,0,0,1,8.27,2.93c1.67,2.11,2,5,2,7.65.14,10.06-3.19,19.91-7.91,28.79a10,10,0,0,1-2.51,3.4,3.67,3.67,0,0,1-4,.49,5.47,5.47,0,0,1-1.8-2.3l-3.07-5.86c-.76-1.45-1.9-3.12-3.53-3-1.21.13-2,1.23-2.71,2.24l-5.25,7.86c-.59.88-1.32,1.85-2.37,2s-2.17-.8-2.93-1.71c-4.46-5.33-6.59-12-10.17-17.92a34.5,34.5,0,0,1-4.07-11.27c-.62-3.71-.11-7.94,2.64-10.5,2.07-1.93,5-2.56,7.78-3.12,1.62-.32,3.23-.66,4.85-1a6.22,6.22,0,0,1,3.23.32,59.81,59.81,0,0,1,8.41,3A43,43,0,0,1,1036.64,1634.89Z" transform="translate(-724.94 -1372.28)" style="fill:#56a3ad"/><path d="M1053.43,1630.26a9,9,0,0,0-7.87-1.77c-9.14,1.7-12.76,13.54-22.69,5,4.61,9.43,14.61,4.75,20.56-.36a6,6,0,0,1,5.68-.14c9.07,4.4-3,39.64-7.52,39.64a2.13,2.13,0,0,1-1.55-.75,13.71,13.71,0,0,1-1.57-2.55c-1.58-3.42-3-8.26-6.66-8.26a3.06,3.06,0,0,0-1.36.33c-4.83,1.7-5.92,12.26-9.6,12.39-1.33,0-2.52-2-3.14-2.9a46.88,46.88,0,0,1-3.85-7.45c-1.36-3.17-3.17-6.16-4.12-9.48s-2.07-6.27-2.41-9.61a19.63,19.63,0,0,1,.6-8.11,7.49,7.49,0,0,1,4.51-3.91c.68-.23,1.56-.56,2.41-.81h0c.46-.11.92-.21,1.39-.29l.59-.11a4.6,4.6,0,0,0,.59-.09,28.39,28.39,0,0,1,4.87-.24,27,27,0,0,1,6,.94,25.43,25.43,0,0,1,3.08,1.06,3.73,3.73,0,0,1-.57-.41l-.61-.41c-.41-.26-.82-.51-1.24-.75a23.79,23.79,0,0,0-2.58-1.28,25,25,0,0,0-5.48-1.63,24.69,24.69,0,0,0-5.7-.34c-.81,0-1.63.13-2.44.26a14.24,14.24,0,0,0-1.59.26,6.76,6.76,0,0,0-1.55.64,11.42,11.42,0,0,0-2.87,2.26,10,10,0,0,0-2.92,4.92l0,.1a13.23,13.23,0,0,0-.5,6.11c.51,8.87,5.41,20.1,10.13,27.75l.31.51a44.52,44.52,0,0,0,4.4,6,3.63,3.63,0,0,0,2.41,1.23c.88,0,2.36.06,3-.6,2.9-1.91,7.09-13.18,8.12-13.22.34,0,.7.7.85.93.48.75.89,1.54,1.3,2.33,1,2,2,4,3.15,6,.35.62.74,1.2,1.12,1.78a15,15,0,0,0,1.09,1.66l.27.25a2.79,2.79,0,0,0,1.4.85,3,3,0,0,0,2.21-.45,3.66,3.66,0,0,0,.87-.65c.24-.32.5-.67.76-1q1-1.39,1.92-2.85a59.1,59.1,0,0,0,4-7.69c.55-1.25,1.05-2.51,1.51-3.78C1056.91,1649.77,1060,1635.62,1053.43,1630.26Z" transform="translate(-724.94 -1372.28)" style="fill:#0df9e7"/><path d="M1044.36,1646.64a5.69,5.69,0,0,0-5-.22,7.67,7.67,0,0,1,3.83,1.56,15.07,15.07,0,0,1-18.5,5,19.87,19.87,0,0,1-2.72-1.58,22.93,22.93,0,0,1-2.48-1.9,23.82,23.82,0,0,1-2.21-2.17,26.24,26.24,0,0,1-1.91-2.41,25.4,25.4,0,0,1-1.6-2.64,24.92,24.92,0,0,1-2.17-5.81c-.12-.51-.23-1-.31-1.54s-.17-1.29-.29-1.92c-.17-1-.45-2-.61-3.06s-.28-1.88-.51-2.8a19.46,19.46,0,0,1-.35-2c0-.45-.09-.89-.11-1.34a19.45,19.45,0,0,1,.2-4c.07-.49.17-1,.28-1.45l.18-.72c0-.13.07-.25.11-.37a2,2,0,0,1,.1-.35,19.27,19.27,0,0,0-1.53,3.44,23,23,0,0,0-1,3.65,23.68,23.68,0,0,0-.34,3.76c0,.63,0,1.27.06,1.9s.19,1.35.29,2l.33,2.09c.21,1.24.4,2.47.71,3.69a30.77,30.77,0,0,0,2.38,6.28,29,29,0,0,0,1.71,2.9,27.63,27.63,0,0,0,2,2.68,31.82,31.82,0,0,0,2.33,2.46q.63.58,1.29,1.14a17.64,17.64,0,0,0,13.68,3.54,17.85,17.85,0,0,0,12.06-7.44,7,7,0,0,1,2.9,1.63A5.89,5.89,0,0,0,1044.36,1646.64Z" transform="translate(-724.94 -1372.28)" style="fill:#00265b"/><circle cx="123.56" cy="75.22" r="67.5" style="fill:none"/><circle cx="315.56" cy="108.22" r="67.5" style="fill:none"/><circle cx="522.56" cy="123.22" r="67.5" style="fill:none"/><circle cx="500.56" cy="316.22" r="67.5" style="fill:none"/><circle cx="345.56" cy="461.22" r="67.5" style="fill:none"/><circle cx="126.56" cy="444.22" r="67.5" style="fill:none"/><circle cx="76.56" cy="249.22" r="67.5" style="fill:none"/><circle cx="317.56" cy="107.22" r="67.5" style="fill:none"/></svg>